<?xml version="1.0" standalone="no"?>
<!DOCTYPE svg PUBLIC "-//W3C//DTD SVG 1.1//EN" "http://www.w3.org/Graphics/SVG/1.1/DTD/svg11.dtd" >
<svg xmlns="http://www.w3.org/2000/svg" xmlns:xlink="http://www.w3.org/1999/xlink" version="1.1">
<metadata></metadata>
<defs>
<font id="karmalight" horiz-adv-x="1228" >
<font-face units-per-em="2048" ascent="1638" descent="-410" />
<missing-glyph horiz-adv-x="548" />
<glyph horiz-adv-x="0" />
<glyph horiz-adv-x="682" />
<glyph horiz-adv-x="0" />
<glyph horiz-adv-x="0" />
<glyph unicode="&#xd;" horiz-adv-x="681" />
<glyph unicode=" "  horiz-adv-x="548" />
<glyph unicode="&#x09;" horiz-adv-x="548" />
<glyph unicode="&#xa0;" horiz-adv-x="548" />
<glyph unicode="!" horiz-adv-x="516" d="M164 65.5q0 40.5 26.5 68.5t67.5 28t67.5 -28t26.5 -68.5t-26.5 -68.5t-67.5 -28t-67.5 28t-26.5 68.5zM199 1413q53 20 131 8l-35 -1040q-39 -12 -78 0z" />
<glyph unicode="&#x22;" horiz-adv-x="550" d="M102 1391q72 20 146 6l-35 -359q-41 -8 -86 0zM303 1391q72 20 146 6l-35 -359q-41 -8 -86 0z" />
<glyph unicode="#" horiz-adv-x="1443" d="M123 481h242l112 387h-268q-23 45 -29 88h324l104 363h97l-105 -363l358 2l105 361h96l-104 -361h237q20 -31 29 -90h-293l-113 -387h320q23 -43 27 -92h-373l-103 -354h-96l103 354h-359l-102 -354h-96l102 354h-186q-25 39 -29 92zM461 481h358l113 387h-359z" />
<glyph unicode="$" horiz-adv-x="937" d="M82 170q0 37 22.5 63.5t57.5 26.5q27 -98 105.5 -152.5t195.5 -54.5t203 65.5t86 192.5q0 111 -76 166q-59 45 -214 105.5t-254 138.5t-99 194.5t85 197.5t216 101l-13 172q61 18 119 0l-10 -165q156 -4 244 -78q51 -43 51 -102.5t-31 -83t-70 -23.5q0 193 -225 192 q-113 0 -183.5 -47t-70.5 -133q0 -106 107 -176q78 -51 222 -105.5t225 -122t81 -200.5t-96 -242.5t-254 -130.5l10 -172q-57 -18 -119 0l13 170q-127 8 -227.5 64.5t-100.5 138.5z" />
<glyph unicode="%" horiz-adv-x="1509" d="M92 922q0 348 265.5 348t265.5 -342q0 -170 -70 -260t-197 -90t-195.5 86t-68.5 258zM186 924.5q0 -267.5 168 -267.5q174 0 174 271q0 125 -44 194.5t-128 69.5q-170 0 -170 -267.5zM338 0l725 1270h106l-725 -1270h-106zM887 313q0 348 265 348.5t265 -342.5 q0 -170 -69.5 -260t-196.5 -90t-195.5 86t-68.5 258zM981 316.5q0 -267.5 168 -267.5q174 0 174 270q0 125 -44 195t-128 70q-170 0 -170 -267.5z" />
<glyph unicode="&#x26;" horiz-adv-x="1476" d="M82 317q0 111 68.5 219.5t214.5 186.5q-152 203 -152 350.5t86 228t233 80.5q102 0 193.5 -73.5t91.5 -206.5t-89 -241.5t-210 -155.5q20 -27 70 -80q182 -199 360 -353q102 137 144 324l-117 12q-8 72 47 72h291q-2 -6 0 -15.5t-1 -18.5t-7 -17q-10 -18 -50 -23l-67 -4 q-47 -227 -168 -385q191 -149 285 -149q72 0 112 57q29 -25 29 -62.5t-35 -67.5t-96 -30q-135 0 -367 172q-186 -174 -442 -174q-207 0 -315.5 98.5t-108.5 255.5zM205 327.5q0 -106.5 77.5 -190.5t259 -84t335.5 142q-158 131 -357 344q-41 43 -102 116 q-102 -55 -157.5 -138t-55.5 -189.5zM315 1087q0 -121 152 -319l8 4l2 -2q119 45 175.5 139.5t56.5 192.5t-58.5 143t-118.5 45q-111 0 -164 -57t-53 -146z" />
<glyph unicode="'" horiz-adv-x="350" d="M102 1391q72 20 146 6l-35 -359q-41 -8 -86 0z" />
<glyph unicode="(" horiz-adv-x="555" d="M123 502q0 176 33.5 329.5t94 271.5t109 188.5t111.5 146.5l64 -47q-49 -72 -64.5 -95.5t-69 -122t-77.5 -178.5q-70 -235 -70 -483q0 -526 268 -860l-67 -53q-70 82 -113 144t-101.5 176t-88 260.5t-29.5 322.5z" />
<glyph unicode=")" horiz-adv-x="555" d="M20 1391l64 47q63 -76 111.5 -146.5t109 -188.5t94 -271.5t33.5 -329.5t-29.5 -322.5t-88 -260.5t-101.5 -176t-113 -144l-67 53q268 334 268 860q0 389 -147 662q-53 98 -68.5 121.5t-65.5 95.5z" />
<glyph unicode="*" d="M154 1110q10 94 53 154l280 -146l-49 312q84 23 162 0l-47 -310l281 146q51 -70 51 -154l-312 -55l224 -230q-47 -66 -131 -94l-146 281l-147 -283q-78 25 -131 96l221 228z" />
<glyph unicode="+" horiz-adv-x="962" d="M102 545v102h326v328h107v-328h325v-102h-325v-328h-107v328h-326z" />
<glyph unicode="," horiz-adv-x="352" d="M82 65.5q0 38.5 25.5 65.5t67.5 27t68.5 -27t26.5 -91.5t-46 -139t-101 -97.5q-8 -4 -22.5 9.5t-14.5 21.5q53 37 76 131q-37 4 -58.5 33t-21.5 67.5z" />
<glyph unicode="-" horiz-adv-x="784" d="M102 451v102h580v-102h-580z" />
<glyph unicode="." horiz-adv-x="352" d="M82 65.5q0 40.5 26.5 68.5t67.5 28t67.5 -28t26.5 -68.5t-26.5 -68.5t-67.5 -28t-67.5 28t-26.5 68.5z" />
<glyph unicode="/" horiz-adv-x="837" d="M41 -291l635 1716h121l-635 -1716h-121z" />
<glyph unicode="0" horiz-adv-x="1011" d="M72 612q0 336 105.5 497t328.5 161t328.5 -161t105.5 -497t-105.5 -489.5t-328.5 -153.5t-328.5 153.5t-105.5 489.5zM195 612.5q0 -286.5 75.5 -419t235.5 -132.5t235.5 132.5t75.5 419t-75.5 426t-235.5 139.5t-235.5 -139.5t-75.5 -426z" />
<glyph unicode="1" horiz-adv-x="700" d="M92 1133l211 118q35 18 72 19q53 0 53 -60v-1126l178 -12q8 -72 -47 -72h-440v14q0 41 26 52q12 6 31 8l133 6v1050l-155 -57q-27 -10 -44.5 12.5t-17.5 47.5z" />
<glyph unicode="2" horiz-adv-x="899" d="M74 59q16 16 91 90t104.5 104t98 103.5t100.5 115.5t81 110.5t74 119.5q59 131 59 235.5t-63.5 171.5t-178 67t-177 -70t-62.5 -195q-41 0 -69 25t-28 78q0 106 99.5 181t254 75t251 -86t96.5 -234q0 -221 -232 -499q-76 -88 -127 -139.5t-128.5 -128.5t-100.5 -99l504 6 l20 129q6 39 39 55.5t47 1.5v-276h-745q-12 35 -8 59z" />
<glyph unicode="3" horiz-adv-x="872" d="M70 143.5q0 75.5 73 96.5q20 -82 82 -132.5t181.5 -50.5t200.5 81t77 206q-2 82 -42 138.5t-103 82.5q-115 45 -273 37l-2 94q106 0 221 54q62 28 103 85.5t41 143.5t-58.5 142.5t-152.5 56.5t-143.5 -53.5t-51.5 -149.5q-51 4 -79.5 32.5t-22.5 73.5q10 76 96 132.5 t220 56.5t226.5 -78t92.5 -191q0 -227 -244 -325q139 -23 219 -111t80 -219q0 -164 -122 -270.5t-314 -106.5q-129 0 -217 49.5t-88 125z" />
<glyph unicode="4" horiz-adv-x="931" d="M41 399l559 850q59 16 117 0l2 -846h182v-92h-180v-311l-113 -20v331h-528q-16 16 -27.5 43t-11.5 45zM150 403h458v715z" />
<glyph unicode="5" horiz-adv-x="845" d="M68 133q0 68 82 76q23 -152 229 -152q133 0 214 93.5t81 245t-83 213t-205 61.5t-212 -56l-24 15l28 622l527 -2l-7 -100h-432l-16 -408q82 25 178 25q166 0 268.5 -89t102.5 -276.5t-118 -309.5t-310 -122q-143 0 -223 44t-80 120z" />
<glyph unicode="6" horiz-adv-x="956" d="M113 494q0 379 129 577.5t368 198.5q109 0 164 -34t55 -89q0 -82 -81 -92q0 49 -37 88t-115 39q-150 0 -243 -149t-113 -415q141 92 306 92.5t250 -90t85 -254t-100.5 -280.5t-272.5 -117q-395 0 -395 525zM236 487q0 -211 70.5 -320.5t195.5 -109.5t190.5 79t65.5 212 t-61.5 203t-178.5 70q-160 0 -282 -103v-31z" />
<glyph unicode="7" horiz-adv-x="774" d="M31 975v276h712q14 -29 15 -53l-510 -1206l-123 39l510 1138l-498 -8l-20 -141q-6 -35 -41 -47t-45 2z" />
<glyph unicode="8" horiz-adv-x="915" d="M95 270q-5 125 79 228.5t207 169.5q-98 61 -151.5 132.5t-53.5 189.5t88 199t217 81t219.5 -72t90.5 -203q0 -184 -199 -313q125 -74 193.5 -150.5t68.5 -211t-110.5 -243t-290 -108.5t-266.5 88t-92 213zM207 294q0 -99 66.5 -168t194.5 -69t206 72t78 171t-68 167 t-190 135l-43 25q-105 -52 -174.5 -143t-69.5 -190zM279 992q0 -83 61 -142t190 -133q156 117 156 270q0 90 -50 145.5t-143.5 55.5t-153.5 -56.5t-60 -139.5z" />
<glyph unicode="9" horiz-adv-x="882" d="M49 872.5q0 163.5 100.5 280.5t272.5 117q395 0 395 -525q0 -379 -129 -577.5t-369 -198.5q-109 0 -164 34t-55 89q0 82 82 92q0 -49 37 -88t115 -39q150 0 243 148.5t113 415.5q-141 -92 -306 -92.5t-250 90t-85 254zM172 891q0 -133 61.5 -203t178.5 -70q160 0 282 103 v31q0 211 -70.5 320.5t-195.5 109.5t-190.5 -79t-65.5 -212z" />
<glyph unicode=":" horiz-adv-x="352" d="M82 65.5q0 40.5 26.5 68.5t67.5 28t67.5 -28t26.5 -68.5t-26.5 -68.5t-67.5 -28t-67.5 28t-26.5 68.5zM82 692q0 41 26.5 68.5t67.5 27.5t67.5 -27.5t26.5 -68.5t-26.5 -68.5t-67.5 -27.5t-67.5 27.5t-26.5 68.5z" />
<glyph unicode=";" horiz-adv-x="387" d="M82 692q0 41 26.5 68.5t67.5 27.5t67.5 -27.5t26.5 -68.5t-26.5 -68.5t-67.5 -27.5t-67.5 27.5t-26.5 68.5zM117 65.5q0 38.5 25.5 65.5t67.5 27t68.5 -27t26.5 -91.5t-46 -139t-101 -97.5q-8 -4 -22.5 9.5t-14.5 21.5q53 37 76 131q-37 4 -58.5 33t-21.5 67.5z" />
<glyph unicode="&#x3c;" horiz-adv-x="903" d="M82 557v78l670 352l49 -94l-568 -297l568 -297l-49 -94z" />
<glyph unicode="=" horiz-adv-x="962" d="M102 418v102h758v-102h-758zM102 682v102h758v-102h-758z" />
<glyph unicode="&#x3e;" horiz-adv-x="862" d="M61 299l568 297l-568 297l50 94l669 -352v-78l-669 -352z" />
<glyph unicode="?" horiz-adv-x="987" d="M102 1174q0 104 107.5 191t288 87t284 -90t103.5 -250t-121 -277.5t-275 -154.5l-12 -313q-41 -6 -84 0l-10 376q168 43 273.5 144.5t105.5 219.5t-72 189.5t-202 71.5t-202.5 -83t-72.5 -202q-111 0 -111 91zM340 65.5q0 40.5 26.5 68.5t67.5 28t67.5 -28t26.5 -68.5 t-26.5 -68.5t-67.5 -28t-67.5 28t-26.5 68.5z" />
<glyph unicode="@" horiz-adv-x="1945" d="M102 519q0 390 253 636t669 246q369 0 594 -180.5t225 -472t-169 -465.5t-445 -174q-74 0 -86 43q-6 27 0 67q-147 -135 -297 -135t-229.5 108.5t-54 320.5t154.5 342t323 130q109 0 203 -49l4 33l99 14l-109 -793q229 -8 368.5 141.5t139.5 407.5t-199.5 419t-525.5 161 q-367 0 -591 -218t-224 -571.5t225 -567.5t594 -214q274 0 467 123l25 -82q-230 -123 -506 -123q-410 0 -659 231.5t-249 621.5zM669.5 534.5q-20.5 -145.5 30 -248t189.5 -102.5q70 0 126 28t140 89l70 504q-29 31 -88.5 59.5t-135.5 28.5q-143 0 -227 -106.5t-104.5 -252z " />
<glyph unicode="A" horiz-adv-x="1222" d="M20 0v16q0 45 27 58q14 6 113 14l397 1296q28 4 57 4t58 -4l395 -1292h2l131 -12q1 -10 1 -19q0 -61 -48 -61h-371v16q0 45 27 58q12 6 31 8l102 6l-117 395h-450l-115 -391l152 -12q1 -10 1 -19q0 -61 -48 -61h-345zM403 575h396l-199 672z" />
<glyph unicode="B" horiz-adv-x="1087" d="M86 0v16q0 45 27 58q12 6 30 8l103 6v1206l-150 13q-1 10 -1 19q0 60 48 60h418q193 0 294 -96t101 -243q0 -213 -219 -310q117 -25 202 -112.5t87 -223.5v-6q0 -185 -124 -289q-126 -106 -331 -106h-485zM365 88l155 -2h11q201 0 283 75q85 77 85 233q0 158 -95 224 q-90 63 -290 62h-25l-124 -2v-590zM365 762h100q193 0 278.5 71.5t85.5 212t-93 204.5q-81 56 -222 56q-22 0 -45 -1l-102 -7h-2v-536z" />
<glyph unicode="C" horiz-adv-x="1120" d="M81 652v34q0 301 151 508q160 219 436 219q164 0 274.5 -73.5t110.5 -181t-109 -109.5q0 129 -79 199.5t-212 70.5q-215 0 -328.5 -174t-113.5 -456.5t110.5 -445.5t343 -163t377.5 125q25 -12 25 -41q0 -57 -119 -126t-295 -69q-270 0 -416.5 179.5t-155.5 503.5z" />
<glyph unicode="D" horiz-adv-x="1335" d="M86 0v16q0 45 27 58q12 6 30 8l103 6v1206l-150 13q-1 10 -1 19q0 60 48 60h416q369 0 531.5 -166.5t162.5 -514t-175 -526.5t-519 -179h-473zM365 86h151q293 0 451.5 149.5t158.5 469t-164 465.5q-152 134 -444 134q-24 0 -49 -1l-104 -5v-1212z" />
<glyph unicode="E" horiz-adv-x="1120" d="M86 0v16q0 45 27 58q12 6 30 8l103 6v1202l-150 15q-1 10 -1 18q0 59 49 59h1h856v-284q0 -48 -60 -48q-9 0 -19 1l-21 229l-536 10v-557l401 23q6 -30 6 -63.5t-6 -69.5l-401 22v-553l561 12l20 207q16 8 48 0t32 -47v-264h-940z" />
<glyph unicode="F" horiz-adv-x="1044" d="M86 0v16q0 45 27 58q12 6 30 8l103 6v1202l-150 15q-1 10 -1 18q0 59 49 59h1h859v-264q0 -48 -61 -48q-9 0 -19 1l-23 219h-532v-532l399 22q6 -30 6 -63.5t-6 -69.5l-399 23v-578l176 -12q1 -10 1 -19q0 -61 -48 -61h-412z" />
<glyph unicode="G" horiz-adv-x="1253" d="M82 652q-1 19 -1 38q0 307 157 511q165 216 471 216q201 0 299 -77.5t98 -184t-109 -106.5q0 141 -85 207.5t-232 66.5q-229 0 -350 -177t-121 -460t109.5 -451.5t347.5 -168.5q203 0 327 98v364l-215 13q-1 10 -1 20q0 60 46 60h398v-15q0 -61 -58 -67l-49 -7v-399 q-74 -74 -206 -119t-265 -45q-258 0 -404.5 175t-156.5 508z" />
<glyph unicode="H" horiz-adv-x="1431" d="M86 0v16q0 45 27 58q12 6 30 8l103 6v1202l-150 13q-1 10 -1 19q0 60 47 60h1h383v-14q0 -45 -26 -59q-12 -6 -31 -9l-102 -6v-555h700v551l-149 13q-1 10 -1 19q0 60 47 60h1h381v-14q0 -45 -27 -59q-12 -6 -31 -9l-102 -6v-1202l149 -12q1 -10 1 -19q0 -61 -48 -61 h-381v16q0 45 27 58q12 6 31 8l102 6v559h-702v-555l151 -12q1 -10 1 -19q0 -61 -48 -61h-383z" />
<glyph unicode="I" horiz-adv-x="612" d="M86 0v16q0 45 27 58q12 6 30 8l103 6v1202l-150 13q-1 10 -1 19q0 60 47 60h1h383v-14q0 -45 -26 -59q-12 -6 -31 -9l-102 -6h-2v-1202l151 -12q1 -10 1 -19q0 -61 -48 -61h-383z" />
<glyph unicode="J" horiz-adv-x="626" d="M-41 -20q0 75 71 75h9q6 -86 100 -86q70 0 101.5 60.5t31.5 210.5v1050l-172 13q-1 10 -1 19q0 60 48 60h394v-14q0 -45 -27 -59q-14 -6 -123 -15v-1032q0 -172 -74.5 -280.5t-205.5 -108.5q-61 0 -106.5 33t-45.5 74z" />
<glyph unicode="K" horiz-adv-x="1208" d="M86 0v16q0 45 27 58q12 6 30 8l103 6v1202l-150 13q-1 10 -1 19q0 60 47 60h1h383v-14q0 -45 -26 -59q-12 -6 -31 -9l-102 -6l-2 -645l526 641l-129 13q-1 10 -1 19q0 60 48 60h340v-14q0 -45 -27 -59q-14 -6 -110 -15l-463 -555l473 -655l125 -12q1 -9 1 -17 q0 -55 -48 -55h-170l-457 649l-108 -131v-426l151 -12q1 -10 1 -19q0 -61 -48 -61h-383z" />
<glyph unicode="L" horiz-adv-x="1062" d="M86 0v16q0 45 27 58q12 6 30 8l103 6v1206l-152 13q-1 10 -1 19q0 60 47 60h1h383v-14q0 -45 -26 -59q-12 -6 -31 -8l-102 -7v-1206l557 8l20 211q10 1 19 1q61 0 61 -48v-264h-936z" />
<glyph unicode="M" horiz-adv-x="1609" d="M31 0v16q0 45 26 58q14 6 125 14l101 1206l-148 13q-1 10 -1 19q0 60 47 60h1h217l430 -958l396 958h223q48 0 48 -60q0 -9 -1 -19l-143 -13l94 -1198l131 -16q1 -10 1 -19q0 -61 -48 -61h-359v16q0 45 27 58q14 6 125 14l-78 1090l-389 -918q-31 -6 -54 -6q-14 0 -26 2 l-403 889l-82 -1053l145 -12q1 -10 1 -19q0 -61 -48 -61h-358z" />
<glyph unicode="N" horiz-adv-x="1396" d="M86 0v16q0 45 27 58q12 6 30 8l105 6v1202l-152 13q-1 10 -1 19q0 60 47 60h1h203l737 -1146v1054l-151 13q-1 10 -1 19q0 60 48 60h367v-14q0 -45 -27 -59q-12 -6 -31 -9l-106 -6v-1271q-47 -23 -92 -23l-742 1151v-1059l152 -12q1 -10 1 -19q0 -61 -48 -61h-367z" />
<glyph unicode="O" horiz-adv-x="1288" d="M82 654v32q0 307 148 512q156 215 438 215q147 0 272 -74q76 -43 131 -114.5t94 -198.5t41 -293v-17q0 -332 -148 -537q-152 -210 -448 -210q-242 0 -381 178.5t-147 506.5zM203 694.5q0 -278.5 100 -448.5q49 -86 136 -134.5t204 -48.5q223 2 333.5 172.5t110.5 450.5 q0 276 -100 449q-105 183 -332 183h-3q-228 -1 -338.5 -173t-110.5 -450.5z" />
<glyph unicode="P" horiz-adv-x="1105" d="M86 0v16q0 45 27 58q12 6 30 8l103 6v1206l-150 13q-1 10 -1 19q0 60 48 60h418q252 0 378 -107.5t126 -274.5q0 -436 -553 -437q-74 0 -147 6v-481l151 -12q1 -10 1 -19q0 -61 -48 -61h-383zM365 659q70 -6 131 -6q227 0 334.5 79t107.5 252t-114 254q-97 69 -286 69 q-33 0 -69 -2l-104 -7v-639z" />
<glyph unicode="Q" horiz-adv-x="1323" d="M82 660v31q0 303 148 507q155 215 438 215q147 0 272 -74q76 -43 131 -114.5t94 -198.5t41 -293v-19q0 -292 -118 -488q-121 -203 -357 -246q285 -147 391 -148q52 0 103 33q16 -20 16 -59t-33.5 -67t-87 -28t-110 15.5t-120 49.5t-105.5 58.5t-113.5 72.5t-96.5 64 q-225 12 -355 188.5t-138 500.5zM203 694.5q0 -278.5 100 -448.5q49 -86 136 -134.5t204 -48.5q223 2 333.5 172.5t110.5 450.5q0 276 -100 449q-105 183 -332 183h-3q-228 -1 -338.5 -173t-110.5 -450.5z" />
<glyph unicode="R" horiz-adv-x="1153" d="M86 0v20q0 35 12 46q27 16 45 16l103 6v1206l-150 13q0 2 -1 18t0 22.5t5 16.5q8 23 43 22h443q432 0 432 -333q0 -170 -110.5 -270.5t-280.5 -125.5q129 -272 267 -426.5t230 -154.5q0 -49 -22.5 -78t-59.5 -29q-119 0 -273.5 217t-242.5 463h-6q-78 0 -153 6v-563 l151 -12q0 -68 -31 -78q-6 -2 -16 -2h-385zM367 741q74 -6 139 -6q188 0 287.5 77t99.5 212q0 158 -82 221q-82 61 -201 62q-76 0 -241 -9h-2v-557z" />
<glyph unicode="S" horiz-adv-x="995" d="M51 203q0 45 25.5 75.5t66.5 30.5q31 -117 120 -177t230.5 -60t234.5 79.5t93 217.5q0 61 -17.5 104t-63.5 78t-81 53q-57 31 -150 70t-152.5 69.5t-125.5 79.5q-127 92 -127 243t116 247t294 100h16q171 0 281 -82q68 -53 68 -123.5t-34 -98.5t-79 -28q0 106 -63.5 168 t-189.5 62t-206 -56.5t-80 -160.5q0 -123 115 -199q90 -59 209 -108.5t172 -76t113 -71.5q109 -80 109 -242q0 -164 -138 -296q-137 -132 -354 -132q-158 0 -280 65.5t-122 168.5z" />
<glyph unicode="T" horiz-adv-x="1216" d="M41 1147v235h1135v-235q0 -48 -61 -48q-9 0 -19 1l-13 190h-411v-1198l151 -12q1 -10 1 -19q0 -61 -48 -61h-383v16q0 45 27 58q12 6 31 8l102 6v1202h-420l-12 -190q-10 -1 -19 -1q-61 0 -61 48z" />
<glyph unicode="U" horiz-adv-x="1310" d="M53 1303q-1 10 -1 19q0 60 47 60h1h381v-14q0 -45 -26 -59q-12 -6 -31 -9l-102 -6l-3 -809q0 -424 324 -424q174 0 269.5 104.5t95.5 317.5v807l-150 13q-1 10 -1 19q0 60 48 60h355v-14q0 -45 -27 -59q-12 -6 -31 -9l-98 -6v-794q0 -244 -115 -387.5t-360 -143.5 q-426 0 -426 498v823z" />
<glyph unicode="V" horiz-adv-x="1239" d="M12 1303q-1 10 -1 19q0 60 47 60h1h357v-14q0 -45 -27 -59q-12 -6 -31 -9l-102 -6h-2l371 -1124l401 1120l-143 13q-1 10 -1 19q0 60 48 60h299v-14q0 -61 -58 -68l-38 -6l-480 -1294h-86l-444 1290z" />
<glyph unicode="W" horiz-adv-x="1921" d="M12 1303q-1 10 -1 19q0 60 47 60h1h351v-14q0 -45 -27 -59q-14 -6 -127 -15l309 -1101l363 1069h106l320 -1076l348 1104l-152 13q-1 10 -1 19q0 60 48 60h314v-14q0 -45 -27 -59q-12 -6 -67 -13l-426 -1296h-97l-329 1047l-369 -1047h-88l-387 1290z" />
<glyph unicode="X" horiz-adv-x="1241" d="M20 0v16q0 45 27 58q14 8 98 12l410 600l-412 608l-110 13q-1 10 -1 19q0 60 47 60h1h336v-14q0 -45 -27 -59q-14 -6 -100 -15l348 -512l303 510l-117 11q-1 10 -1 19q0 60 47 60h1h306v-14q0 -45 -27 -59q-12 -6 -70 -13h-14l-375 -593l418 -615l111 -12q1 -9 1 -17 q0 -63 -49 -63h-329v16q0 45 26 58q12 6 93 14l-351 518l-338 -514h2l117 -12q1 -10 1 -19q0 -61 -48 -61h-324z" />
<glyph unicode="Y" horiz-adv-x="1187" d="M12 1307q-1 10 -1 19q0 60 47 60h1h355v-14q0 -45 -27 -59q-12 -6 -31 -8l-98 -7l365 -649l346 645l-142 13q-1 10 -1 19q0 60 48 60h304v-14q0 -61 -58 -67l-41 -7h-2l-413 -741v-465l151 -12q1 -10 1 -19q0 -61 -48 -61h-387v16q0 45 27 58q12 6 30 8l103 6v469 l-418 737z" />
<glyph unicode="Z" horiz-adv-x="1060" d="M47 43l793 1264l-596 -19l-27 -186q-6 -41 -29.5 -55.5t-50.5 -8.5v365h848q8 -14 21 -43l-795 -1268l684 19l27 202q6 41 29.5 55.5t52.5 8.5v-377h-936q-4 6 -21 43z" />
<glyph unicode="[" horiz-adv-x="425" d="M123 -369v1772h283v-82h-173v-1608h173v-82h-283z" />
<glyph unicode="\" horiz-adv-x="837" d="M39 1425h121l635 -1716h-121z" />
<glyph unicode="]" horiz-adv-x="405" d="M20 -287h173v1608h-173v82h283v-1772h-283v82z" />
<glyph unicode="^" horiz-adv-x="978" d="M102 418l359 919h78l338 -919h-111l-266 737l-283 -737h-115z" />
<glyph unicode="_" horiz-adv-x="778" d="M-82 -182h942v-103h-942v103z" />
<glyph unicode="`" d="M143 1300q18 35 51 62t68 29l336 -254q-22 -40 -53 -54z" />
<glyph unicode="a" horiz-adv-x="1017" d="M102 242q0 109 76 188q90 98 314 98q127 0 235 -32v182q0 109 -62.5 182.5t-179.5 73.5q-205 0 -229 -203q-6 -1 -12 -1q-34 0 -56 20q-26 22 -26 75q0 84 87 141.5t224 57.5q106 0 219 -51q66 -31 107 -105.5t41 -183.5v-612l137 -17q0 -88 -113 -88q-121 0 -135 137 q-53 -55 -137 -95t-206 -40t-203 72t-81 201zM233 255q0 -85 54.5 -136t150.5 -51q166 0 289 129v182q-98 61 -235.5 61t-198 -50t-60.5 -135z" />
<glyph unicode="b" horiz-adv-x="1112" d="M33 1384l268 37v-555q154 158 327 158t284.5 -127t117.5 -375v-22q0 -232 -123 -378q-129 -152 -358 -153q-127 0 -262 66l-99 39v1220l-114 13q-41 4 -41 77zM301 172q39 -37 115 -71.5t170 -34.5q162 0 241.5 123.5t79.5 306t-76.5 302.5t-236.5 120q-82 0 -142.5 -32 t-150.5 -106v-608z" />
<glyph unicode="c" horiz-adv-x="915" d="M82 467v14q0 222 122 380q126 163 353 163q127 0 199.5 -51t72.5 -135q0 -94 -98 -95q-2 74 -53 129.5t-154 55.5q-156 0 -237.5 -128t-81.5 -315q0 -162 65 -280q76 -135 258 -135q150 0 287 108q20 -14 21 -39q0 -61 -116 -115.5t-243 -54.5q-188 0 -289.5 133.5 t-105.5 364.5z" />
<glyph unicode="d" horiz-adv-x="1095" d="M82 473v22q0 233 124 377q130 152 359 152q119 0 248 -57v327l-115 13q-41 4 -41 77l269 37v-1347l129 -17q-5 -88 -111 -88q-121 0 -131 162q-154 -162 -327 -162t-285.5 128t-118.5 376zM205 499.5q0 -182.5 77.5 -303t237.5 -120.5q82 0 142.5 31.5t150.5 105.5v608 q-39 37 -115 72t-170 35q-162 0 -242.5 -123t-80.5 -305.5z" />
<glyph unicode="e" horiz-adv-x="925" d="M82 471q0 254 135 403.5t324 149.5q88 0 153.5 -35t100.5 -92q68 -115 67 -254v-94h-649q-4 -49 -4 -74q0 -176 78 -290.5t237.5 -114.5t294.5 108q20 -14 21 -41q0 -53 -111 -110.5t-242 -57.5q-180 0 -292.5 124t-112.5 378zM225 629h510v17q0 122 -53 204 q-57 88 -163.5 88t-185.5 -85t-108 -224z" />
<glyph unicode="f" horiz-adv-x="618" d="M100 0v14q0 41 27 52q14 6 123 14v831h-146q0 4 -1 16.5t0 18.5t3.5 16.5t6.5 16.5q10 14 39 14h98v82q0 184 70.5 280.5t205.5 96.5q63 0 108.5 -26.5t45.5 -70.5t-22.5 -65.5t-57.5 -21.5q-2 47 -32.5 74.5t-71.5 27.5q-70 0 -102 -56.5t-32 -180.5v-140h248 q1 -8 1 -15q0 -67 -50 -67h-199v-827l199 -12v-26.5t-2 -21t-6 -12.5q-20 -12 -39 -12h-414z" />
<glyph unicode="g" horiz-adv-x="937" d="M37 -184q0 168 176 288q-59 23 -59 86.5t102 161.5q-154 76 -168 252q-2 22 -2 42q0 149 88 256q100 122 275 122q121 0 206 -59l240 61q18 -25 20.5 -54.5t-20.5 -49.5q-26 -13 -137 -13h-45q67 -84 67 -222v-13q-4 -148 -95 -252.5t-261 -104.5q-37 0 -90 9 q-64 -68 -64 -97q0 -32 170 -36q262 -4 367.5 -58.5t105.5 -215.5t-128 -269.5t-331.5 -108.5t-310 77t-106.5 198zM141 -152q0 -96 90.5 -148t248 -52t251.5 75.5t94 180.5q0 127 -157 155q-90 16 -227.5 20.5t-166.5 8.5q-59 -43 -96 -109.5t-37 -130.5zM201 672.5 q0 -109.5 61 -193.5q61 -82 165 -82h5q109 2 171.5 85t62.5 192.5t-60 190.5q-59 78 -162 78h-8q-108 -3 -171.5 -82t-63.5 -188.5z" />
<glyph unicode="h" horiz-adv-x="1251" d="M100 1384l269 37v-544q135 147 327 147q137 0 238.5 -97.5t103.5 -312.5l2 -530l158 -12q1 -7 1 -14q0 -58 -48 -58h-371v14q0 41 27 52q14 6 121 14v516q0 158 -66.5 240t-173 82t-174.5 -35t-145 -105v-694l157 -12q1 -7 1 -14q0 -58 -48 -58h-373v14q0 41 27 52 q14 6 123 14v1214l-115 13q-41 4 -41 77z" />
<glyph unicode="i" horiz-adv-x="579" d="M100 993l269 31v-940l157 -12q1 -7 1 -14q0 -58 -48 -58h-373v14q0 41 27 52q14 6 123 14v827l-115 11q-41 4 -41 75zM207 1288q0 39 23.5 63.5t64.5 24.5t64.5 -24.5t23.5 -63.5t-23.5 -63.5t-64.5 -24.5t-64.5 24.5t-23.5 63.5z" />
<glyph unicode="j" horiz-adv-x="485" d="M-123 -354q0 78 70 78h10q6 -86 100 -86q147 0 148 270v999l-115 13q-41 4 -41 73l268 31v-1042q0 -188 -67.5 -314.5t-220.5 -126.5q-61 0 -106.5 28t-45.5 77zM158 1288q0 39 23.5 63.5t64.5 24.5t64.5 -24.5t23.5 -63.5t-23.5 -63.5t-64.5 -24.5t-64.5 24.5 t-23.5 63.5z" />
<glyph unicode="k" horiz-adv-x="1073" d="M100 1384l269 37v-960l403 448l-123 13q-1 7 -1 14q0 57 48 57h312v-14q0 -53 -58 -59l-63 -7l-305 -331l364 -500l137 -10q1 -7 1 -14q0 -58 -48 -58h-155l-371 504l-141 -156v-264l157 -12q1 -7 1 -14q0 -58 -48 -58h-373v14q0 41 27 52q14 6 123 14v1214l-115 13 q-41 4 -41 77z" />
<glyph unicode="l" horiz-adv-x="567" d="M100 1382l269 37v-1335l145 -12q1 -7 1 -14q0 -58 -48 -58h-365v14q0 41 27 52q14 8 127 14v1216l-115 13q-41 4 -41 73z" />
<glyph unicode="m" horiz-adv-x="1888" d="M100 991l236 33l26 -147h7q135 147 307 147q94 0 178 -47t129 -148q43 55 82 92t111.5 70t156.5 33q137 0 240.5 -98.5t103.5 -313.5v-528l158 -12q1 -9 1 -17q0 -55 -48 -55h-371v14q0 41 27 52q14 6 121 14v514q0 158 -66.5 239.5t-187.5 81.5q-88 0 -154.5 -38.5 t-148.5 -116.5q18 -55 18 -148v-528l158 -12q1 -9 1 -17q0 -55 -48 -55h-371v14q0 41 27 52q14 6 120 14v514q0 156 -69.5 238.5t-190.5 82.5q-84 0 -148.5 -34.5t-135.5 -104.5v-692l157 -12q1 -7 1 -14q0 -58 -48 -58h-373v14q0 41 27 52q14 6 123 14v833h-94 q-61 0 -62 78z" />
<glyph unicode="n" horiz-adv-x="1236" d="M100 991l236 33l29 -164h6q172 164 350 164q131 0 225 -93t94 -292v-555l144 -12q1 -9 1 -17q0 -55 -48 -55h-363v14q0 41 27 52q14 8 127 14v536q0 305 -238 306q-86 0 -158.5 -35t-162.5 -113v-690l145 -12q1 -7 1 -14q0 -58 -48 -58h-365v14q0 41 27 52q14 8 127 14 v827l-115 13q-41 4 -41 71z" />
<glyph unicode="o" horiz-adv-x="1021" d="M83 472v12q1 236 119 386q122 154 322 154q141 0 264 -86q68 -49 109 -152.5t43 -250.5v-16q0 -241 -116 -393q-120 -157 -322.5 -157t-309 129t-109.5 374zM205 494q1 -189 77 -312q75 -121 220 -121h4q148 2 229.5 123t81.5 308q1 186 -75 314q-74 126 -221 126h-5 q-150 -2 -230.5 -126t-80.5 -312z" />
<glyph unicode="p" horiz-adv-x="1101" d="M23 983l235 31l33 -152q166 162 333 162t278.5 -127t117.5 -376v-22q0 -234 -123 -379q-129 -151 -358 -151q-119 0 -248 58v-379l158 -13q1 -7 1 -14q0 -57 -48 -57h-1h-372v14q0 41 26 53q14 4 123 13v1257l-115 12q-41 4 -40 70zM291 170q39 -37 114.5 -70.5 t169.5 -33.5q162 0 242 122.5t80 306t-77 303.5t-236 120q-82 0 -142.5 -32t-150.5 -106v-610z" />
<glyph unicode="q" horiz-adv-x="1050" d="M82 473v15q0 236 122 384q126 152 353 152q131 0 252 -57v26h113v-1345l157 -13q1 -7 1 -14q0 -57 -48 -57h-373v14q0 41 27 53q14 4 123 13v456q-143 -131 -318.5 -131t-290 129t-118.5 375zM205 499.5q0 -182.5 78.5 -301t240.5 -118.5q84 0 144.5 27.5t140.5 87.5v630 q-37 37 -113 70t-174 33q-158 0 -237.5 -123t-79.5 -305.5z" />
<glyph unicode="r" horiz-adv-x="808" d="M100 983l252 33l13 -154h6q66 63 156.5 112.5t156.5 49.5q115 0 115 -100q0 -106 -25 -138q-21 -19 -59 -19q-8 0 -17 1q0 145 -77 145q-96 0 -252 -141v-688l178 -12q1 -7 1 -14q0 -58 -48 -58h-394v14q0 41 27 52q14 6 123 14v819l-115 12q-41 4 -41 72z" />
<glyph unicode="s" horiz-adv-x="786" d="M74 222q23 23 54 22h5q18 -80 86 -130.5t168 -52.5h7q95 -1 164 49q71 52 73 133v7q0 76 -45 114q-47 40 -141.5 74.5t-124 46t-86 40t-82.5 55.5q-68 72 -68 163q2 129 106 206q102 75 219 75h6q121 -2 201 -44q79 -41 78 -114v-4q-2 -52 -36 -72q-31 -19 -64 -18h-6v6 q0 68 -41 109q-43 43 -135 45h-8q-87 0 -148 -43q-64 -45 -66 -117v-6q0 -68 60 -107q62 -41 174.5 -84t150 -61t84.5 -51q81 -57 81 -171v-8q-2 -120 -106 -218q-101 -97 -271 -97h-7q-123 5 -217 55q-92 49 -92 129q0 42 27 69z" />
<glyph unicode="t" horiz-adv-x="747" d="M53 911q-1 10 -1 20q0 62 48 62h97v238l112 39v-277h387v-9q0 -31 -12 -73h-375v-612q0 -123 25.5 -176t100.5 -53t123 15t124 75q35 -12 35 -47q0 -53 -96.5 -99.5t-182.5 -46.5q-133 0 -187 78t-54 229v637h-144z" />
<glyph unicode="u" horiz-adv-x="1155" d="M37 922q-1 9 -1 17q0 54 47 54h1h221v-594q0 -158 66.5 -240.5t198.5 -82.5t274 123v710l-158 13q-1 7 -1 14q0 57 47 57h1h223v-882l115 -13q41 -4 41 -78l-235 -18l-23 107q-135 -140 -317 -140q-137 0 -240.5 98.5t-103.5 313.5v528z" />
<glyph unicode="v" horiz-adv-x="954" d="M10 922q-1 8 -1 15q0 56 43 56h1h307v-14q0 -41 -26 -53q-14 -4 -121 -13l266 -770l285 766l-123 13q-1 7 -1 14q0 57 48 57h256v-26q0 -16 -14.5 -30.5t-42.5 -16.5h-8l-369 -920h-86l-340 909z" />
<glyph unicode="w" horiz-adv-x="1427" d="M10 922q-1 8 -1 15q0 56 43 56h1h307v-14q0 -41 -26 -53q-14 -4 -119 -13l229 -763l269 759h43l239 -749l246 749h-2l-125 13q-1 9 -1 17q0 54 48 54h256v-26q0 -16 -14 -30.5t-43 -16.5h-6l-338 -920h-72l-229 659l-248 -659h-72l-307 909z" />
<glyph unicode="x" horiz-adv-x="972" d="M20 0q2 6 0 14.5t1.5 18.5t7.5 18q10 18 49 23l76 6h2l282 414l-301 415h-2l-98 13q-1 9 -1 17q0 54 47 54h1h307v-14q0 -53 -57 -59l-70 -7l248 -342l219 338l-113 13q-1 9 -1 17q0 54 47 54h2h280q-2 -6 0 -15t-1 -19.5t-7 -18.5q-10 -20 -49 -20l-49 -2l-283 -408 l309 -426l95 -12v-12q0 -60 -48 -60h-303v14q0 53 58 60l71 6l-254 350l-225 -346l125 -12q1 -9 1 -17q0 -55 -48 -55h-318z" />
<glyph unicode="y" horiz-adv-x="991" d="M12 922q-1 9 -1 17q0 54 47 54h1h324v-14q0 -41 -27 -53q-14 -4 -118 -13l276 -731l281 727l-123 13q-1 9 -1 17q0 54 48 54h264q-2 -6 0 -14t-1 -18.5t-7 -18.5q-10 -18 -74 -24l-360 -893q-109 -268 -183.5 -366.5t-147.5 -98.5t-105.5 29.5t-32.5 68.5t20.5 62.5 t45 23.5t34.5 -4q-3 -15 -3 -26q0 -48 52 -48q88 0 242 373l-352 870z" />
<glyph unicode="z" horiz-adv-x="794" d="M31 45l594 877l-430 -11l-7 -116q-2 -27 -19 -44.5t-34.5 -17.5t-28.5 4v256h635q12 -18 21 -45l-588 -868l500 8l10 119q2 27 19.5 44t34 17t26.5 -4v-264h-715q-12 18 -18 45z" />
<glyph unicode="{" horiz-adv-x="626" d="M102 494v49q66 25 91.5 57.5t36 62t10.5 100.5t-16.5 196.5t-16.5 205.5q0 123 70.5 197t177 74t151.5 -27l-14 -59q-45 4 -62 4q-106 0 -157 -45t-51 -154q0 -49 17 -179t17 -196q0 -221 -104 -256v-12q104 -35 104 -256q0 -66 -17 -197t-17 -180q0 -109 51 -153.5 t157 -44.5q16 0 62 4l14 -60q-45 -27 -151.5 -26.5t-177 74t-70.5 196.5q0 76 16.5 205t16.5 201.5t-10.5 100t-32 54.5t-34.5 35t-61 29z" />
<glyph unicode="|" horiz-adv-x="520" d="M205 -401v1837h110v-1837h-110z" />
<glyph unicode="}" horiz-adv-x="626" d="M-20 -375l14 60q45 -4 61 -4q106 0 157.5 45t51.5 153q0 49 -17.5 180t-17.5 197q0 221 105 256v12q-104 35 -105 256q0 66 17.5 196t17.5 179q0 109 -51 154t-158 45q-16 0 -61 -4l-14 59q45 27 151.5 27t177 -74t70.5 -197q0 -80 -16.5 -205.5t-16.5 -196.5 t10.5 -100.5t36 -62.5t90.5 -57v-49q-47 -20 -60 -28.5t-34.5 -35.5t-32 -54.5t-10.5 -100t16.5 -201.5t16.5 -205q0 -123 -70.5 -196.5t-177 -73.5t-151.5 26z" />
<glyph unicode="~" horiz-adv-x="1093" d="M205 528q29 88 91 132.5t126.5 40t142.5 -62.5t128 -61.5t86 23.5t50 72l60 -23q-23 -82 -80 -133t-135 -46t-159 62.5t-132 61.5q-76 2 -119 -94z" />
<glyph unicode="&#xa1;" horiz-adv-x="516" d="M164 1300.5q0 40.5 26.5 68.5t67.5 28t67.5 -28t26.5 -68.5t-26.5 -68.5t-67.5 -28t-67.5 28t-26.5 68.5zM199 -47l18 1032q39 12 78 0l35 -1040q-78 -12 -131 8z" />
<glyph unicode="&#xa2;" horiz-adv-x="958" d="M102 455q-4 217 98.5 374.5t291.5 188.5l-15 194q63 18 123 0l-10 -188q121 -2 190.5 -53t69.5 -133q0 -94 -98 -95q-2 80 -52.5 137.5t-154.5 57.5q-156 0 -238 -129t-82 -324q0 -164 66 -280q76 -137 258 -137q150 0 287 108q20 -14 20 -39q0 -49 -80 -97t-186 -65 l10 -184q-66 -20 -123 0l12 176q-184 2 -283.5 136.5t-103.5 351.5z" />
<glyph unicode="&#xa3;" horiz-adv-x="1019" d="M102 57q72 20 109 57.5t51 111t43 333.5h-186v92h196q14 143 15 146q18 244 111.5 353.5t258.5 109.5q84 0 148.5 -36t64.5 -110q0 -98 -104 -98q0 154 -139 153q-94 0 -160 -89t-82 -283l-14 -146h364v-92h-375q-23 -229 -40 -328.5t-70 -148.5h625q8 -82 -64 -82h-739 q-12 18 -13 57z" />
<glyph unicode="&#xa4;" horiz-adv-x="1183" d="M102 170l179 160q-70 98 -70 242.5t76 244.5l-185 164q39 53 82 78l162 -178q104 82 250.5 82t249.5 -74l153 170q43 -25 82 -78l-172 -152q86 -104 86 -256.5t-80 -255.5l166 -147q-39 -53 -82 -78l-147 164q-100 -78 -254 -78t-258 86l-156 -172q-43 25 -82 78z M322 569q0 -131 78.5 -212t204.5 -81t203 81t77 212t-77 213t-203 82t-204.5 -82t-78.5 -213z" />
<glyph unicode="&#xa5;" horiz-adv-x="1124" d="M23 1171q-8 80 47 80h356v-14q0 -45 -27 -59q-14 -6 -112 -15l313 -495l289 491l-139 12q-8 80 47 80h307v-14q0 -61 -57 -68l-41 -6h-2l-316 -514h213v-92h-256v-104h256v-93h-256v-268l152 -12q8 -80 -47 -80h-379v16q0 45 26 58q12 6 31 8l102 6v272h-288v93h288v104 h-288v92h243l-348 510h-4z" />
<glyph unicode="&#xa6;" horiz-adv-x="520" d="M205 348h110v-749h-110v749zM205 686v750h110v-750h-110z" />
<glyph unicode="&#xa7;" horiz-adv-x="1056" d="M82 -293q0 45 25.5 76t66.5 31q31 -113 120 -173.5t225 -60.5t234.5 74t98.5 217q0 82 -42 139.5t-85 81t-107.5 51t-118 51t-113.5 55.5t-124 79q-127 94 -127 243.5t127 249.5q-127 104 -127 250t123 244q180 139 438 86q78 -16 145.5 -68.5t67.5 -123t-33.5 -98.5 t-78.5 -28q0 104 -63.5 165t-189.5 61t-206 -55.5t-80 -157.5q0 -131 154 -224q53 -31 89 -46t106.5 -44.5t113.5 -50t99.5 -55.5t84.5 -70q70 -82 70 -194q0 -152 -101 -271q101 -88 101 -225q0 -178 -137.5 -310t-354.5 -132q-158 0 -279.5 65.5t-121.5 167.5zM258 600 q0 -131 154 -223q53 -31 89 -46.5t139 -59.5t159 -76q53 74 53 164t-42 147t-85 80.5t-107 52.5q-180 76 -270 125q-90 -58 -90 -164z" />
<glyph unicode="&#xa8;" d="M264 1242q0 40 29 68.5t68.5 28.5t67.5 -28.5t28 -68.5t-28 -67.5t-67.5 -27.5t-68.5 27.5t-29 67.5zM588 1243q0 39 27.5 67.5t68.5 28.5t68.5 -28.5t27.5 -68.5t-27.5 -67.5t-68.5 -27.5t-68.5 28.5t-27.5 67.5z" />
<glyph unicode="&#xa9;" horiz-adv-x="1306" d="M102 637q0 248 153 399.5t399.5 151.5t398 -151.5t151.5 -399.5t-150.5 -399.5t-399 -151.5t-400.5 151.5t-152 399.5zM205 634q0 -206 125 -333t324.5 -127t323.5 127t124 336t-126 336t-325.5 127t-322.5 -130t-123 -336zM416 623.5q-2 134.5 71.5 228.5t206.5 94 q74 0 115 -29.5t41 -67.5t-20.5 -52.5t-45.5 -14.5q0 39 -28.5 65.5t-93 26.5t-107.5 -68.5t-43 -170.5q0 -217 178 -217q94 0 152 45q12 -10 12 -29q0 -35 -55.5 -66.5t-126.5 -31.5q-123 0 -188.5 76.5t-67.5 211z" />
<glyph unicode="&#xaa;" horiz-adv-x="638" d="M72 856q0 158 229 158q53 0 105 -10v65q0 127 -111 127q-104 0 -115 -96q-31 -4 -52.5 11t-21.5 56t51.5 73t137.5 32t152.5 -44t66.5 -153v-293l76 -8q0 -29 -20.5 -47t-57.5 -18q-80 0 -100 59q-70 -59 -158 -59t-135 38.5t-47 108.5zM190 869.5q0 -33.5 26 -58.5 t79 -25t111 41v101q-47 20 -101.5 20t-84.5 -22.5t-30 -56z" />
<glyph unicode="&#xab;" horiz-adv-x="1103" d="M129 453q-8 39 0 82l500 407l47 -49l-412 -395v-11l414 -395l-49 -49zM487 453q-8 39 0 82l500 407l47 -49l-411 -395v-11l413 -395l-49 -49z" />
<glyph unicode="&#xac;" horiz-adv-x="966" d="M102 549v102h762v-321h-106v219h-656z" />
<glyph unicode="&#xad;" horiz-adv-x="784" d="M102 451v102h580v-102h-580z" />
<glyph unicode="&#xae;" horiz-adv-x="1198" d="M143 963.5q0 205.5 126 332.5t330 127t330 -124.5t126 -333.5t-126 -334t-329 -125t-330 126t-127 331.5zM236 965q0 -170 101 -274.5t264 -104.5t262.5 102.5t99.5 272t-97.5 275t-260.5 105.5t-266 -103t-103 -273zM393 731q0 53 27 55l33 2v394l-58 2q0 53 23 53h186 q180 0 180 -125q0 -117 -139 -143q45 -92 96.5 -143.5t92.5 -51.5q-4 -51 -62.5 -51t-116 73.5t-92.5 166.5h-24v-175l61 -4q0 -53 -27 -53h-180zM539 1016q12 -2 51 -2t71.5 24.5t32.5 65.5q0 80 -114 80h-41v-168z" />
<glyph unicode="&#xaf;" d="M266 1184v108h522v-108h-522z" />
<glyph unicode="&#xb0;" horiz-adv-x="628" d="M102 1186q0 90 60.5 146.5t153 56.5t151.5 -55.5t59 -146.5t-59 -148.5t-152.5 -57.5t-153 57.5t-59.5 147.5zM195 1188q0 -55 33.5 -91t88 -36t86 34.5t31.5 90t-32.5 90.5t-87 35t-87 -34t-32.5 -89z" />
<glyph unicode="&#xb1;" horiz-adv-x="962" d="M102 135v103h758v-103h-758zM102 545v102h326v328h107v-328h325v-102h-325v-254h-107v254h-326z" />
<glyph unicode="&#xb2;" horiz-adv-x="641" d="M72 623q195 162 277.5 263t84.5 195q0 53 -32.5 86t-94.5 33q-131 0 -131 -158q-86 -4 -86 74q0 66 65.5 111t167 45t162 -51.5t60.5 -125t-32 -138t-91 -126.5q-137 -135 -217 -188h289l10 68q4 27 26.5 37t38.5 2v-183h-487q-14 33 -10 56z" />
<glyph unicode="&#xb3;" horiz-adv-x="606" d="M70 659q0 61 65 68q6 -49 42 -79t101.5 -30t110.5 37t43 106.5t-72.5 98.5t-169.5 23v78q68 0 137.5 34.5t69.5 112.5q0 94 -106 94q-53 0 -81 -30.5t-30 -79.5q-41 2 -60.5 19t-16.5 55t56.5 71t142.5 33t147.5 -43t58.5 -115q0 -119 -154 -172q86 -10 138.5 -58 t52.5 -129t-78 -142.5t-183.5 -61.5t-159.5 30.5t-54 79.5z" />
<glyph unicode="&#xb4;" d="M381 1137l336 254q35 -2 68 -29t51 -62l-402 -217q-31 14 -53 54z" />
<glyph unicode="&#xb5;" horiz-adv-x="1140" d="M207 -383l12 711q-2 16 -2 53v612h113v-594q0 -158 66.5 -240.5t198.5 -82.5t263 114v803h113v-921l137 -17q0 -88 -114.5 -88t-131.5 125q-127 -123 -291.5 -123t-259.5 109l13 -461q-55 -16 -117 0z" />
<glyph unicode="&#xb6;" horiz-adv-x="1153" d="M102 1004q0 166 121 274t352 108h426q55 0 48 -79l-150 -13v-1478h-123v1478h-127v-1478h-123v798q-109 0 -189.5 36t-126.5 77t-77 112.5t-31 164.5z" />
<glyph unicode="&#xb7;" horiz-adv-x="352" d="M82 514q0 41 26.5 68.5t67.5 27.5t67.5 -27.5t26.5 -68.5t-26.5 -68.5t-67.5 -27.5t-67.5 27.5t-26.5 68.5z" />
<glyph unicode="&#xb8;" d="M438 -330q-6 39 25 60q49 -39 104 -39q100 0 101 80q0 72 -152 71l51 195h72l-29 -121q164 0 164 -147q0 -70 -52 -113t-141 -43t-143 57z" />
<glyph unicode="&#xb9;" horiz-adv-x="548" d="M92 1171l156 80q23 12 53 13q39 0 39 -45v-568l115 -6q4 -16 -3.5 -36.5t-37.5 -20.5h-301v10q0 49 43 49l77 2v502l-83 -25q-23 -6 -40.5 12.5t-17.5 32.5z" />
<glyph unicode="&#xba;" horiz-adv-x="727" d="M94 976q-2 134 68.5 215t182.5 81t181.5 -66.5t71.5 -205t-67.5 -220.5t-189.5 -82t-182.5 72t-64.5 206zM207 983q0 -92 36 -150.5t101.5 -58.5t102 57.5t36.5 150.5t-34.5 153.5t-100 60.5t-103.5 -60.5t-38 -152.5z" />
<glyph unicode="&#xbb;" horiz-adv-x="1103" d="M68 92l413 395v11l-411 395l47 49l499 -407q8 -43 0 -82l-499 -410zM426 92l414 395v11l-412 395l47 49l500 -407q8 -43 0 -82l-500 -410z" />
<glyph unicode="&#xbc;" d="M55 1174l156 83q23 12 53 13q39 0 39 -47v-590l115 -8q4 -16 -3 -38t-38 -22h-301v13q0 49 43 49l78 4v520l-84 -27q-23 -6 -40.5 13.5t-17.5 36.5zM217 0l725 1270h107l-725 -1270h-107zM631 207l344 481q47 12 88 4l2 -477h109v-72h-109v-149l-104 -12v161h-302 q-27 41 -28 64zM719 215h242v338z" />
<glyph unicode="&#xbd;" d="M37 1174l156 83q23 12 53 13q39 0 39 -47v-590l114 -8q4 -16 -3 -38t-38 -22h-301v13q0 49 43 49l78 4v520l-84 -27q-23 -6 -40 13.5t-17 36.5zM188 0l725 1270h107l-725 -1270h-107zM696 55q195 162 262 244q100 119 101 215q0 53 -33 86t-94 33q-131 0 -131 -158 q-86 -4 -86 74q0 66 65.5 111t167 45t161.5 -51.5t60 -125t-31.5 -138t-93.5 -124.5q-135 -137 -215 -190h289l10 67q4 27 27 37t39 2v-182h-487q-14 33 -11 55z" />
<glyph unicode="&#xbe;" d="M43 659q0 61 66 68q6 -49 41.5 -79t101 -30t111 37t43 106.5t-73 98.5t-168.5 23v78q68 0 137.5 34.5t69.5 112.5q0 94 -107 94q-53 0 -80.5 -30.5t-29.5 -79.5q-41 2 -60.5 19t-16.5 55t56 71t142.5 33t147.5 -43t58 -115q0 -119 -153 -172q86 -10 138 -58t52 -129 t-78 -142.5t-183 -61.5t-159.5 30.5t-54.5 79.5zM256 0l725 1270h106l-725 -1270h-106zM651 207l344 481q47 12 88 4l2 -477h109v-72h-109v-149l-104 -12v161h-301q-27 41 -29 64zM739 215h242v338z" />
<glyph unicode="&#xbf;" horiz-adv-x="987" d="M102 262q0 160 121 277.5t275 154.5l12 314q41 6 84 0l10 -377q-168 -43 -273.5 -144.5t-105.5 -219t72 -189.5t202 -72t202.5 83t72.5 202q111 0 111 -90q0 -105 -107.5 -192t-288 -87t-284 90t-103.5 250zM459 1309q0 41 26.5 68.5t67.5 27.5t67.5 -27.5t26.5 -68.5 t-26.5 -69t-67.5 -28t-67.5 28t-26.5 69z" />
<glyph unicode="&#xc0;" horiz-adv-x="1222" d="M20 0v16q0 45 27 58q14 6 113 14l397 1296q57 8 115 0l395 -1292h2l131 -12q8 -80 -47 -80h-371v16q0 45 27 58q12 6 31 8l102 6l-117 395h-450l-115 -391l152 -12q8 -80 -47 -80h-345zM354 1690q18 35 51 61.5t68 28.5l336 -254q-23 -39 -53 -53zM403 575h396l-199 672z " />
<glyph unicode="&#xc1;" horiz-adv-x="1222" d="M20 0v16q0 45 27 58q14 6 113 14l397 1296q57 8 115 0l395 -1292h2l131 -12q8 -80 -47 -80h-371v16q0 45 27 58q12 6 31 8l102 6l-117 395h-450l-115 -391l152 -12q8 -80 -47 -80h-345zM403 575h396l-199 672zM451 1546l335 254q35 -2 68 -28.5t51 -61.5l-401 -217 q-31 14 -53 53z" />
<glyph unicode="&#xc2;" horiz-adv-x="1222" d="M20 0v16q0 45 27 58q14 6 113 14l397 1296q57 8 115 0l395 -1292h2l131 -12q8 -80 -47 -80h-371v16q0 45 27 58q12 6 31 8l102 6l-117 395h-450l-115 -391l152 -12q8 -80 -47 -80h-345zM287 1526l266 243q59 16 119 0l266 -243q-23 -39 -53 -53l-273 182l-272 -182 q-31 14 -53 53zM403 575h396l-199 672z" />
<glyph unicode="&#xc3;" horiz-adv-x="1222" d="M20 0v16q0 45 27 58q14 6 113 14l397 1296q57 8 115 0l395 -1292h2l131 -12q8 -80 -47 -80h-371v16q0 45 27 58q12 6 31 8l102 6l-117 395h-450l-115 -391l152 -12q8 -80 -47 -80h-345zM274 1573q23 92 81.5 140t124 48t146.5 -53t132 -53t83.5 29.5t45.5 76.5l61 -18 q-16 -84 -70.5 -139.5t-132 -55.5t-162.5 51.5t-130 51.5q-82 0 -117 -101zM403 575h396l-199 672z" />
<glyph unicode="&#xc4;" horiz-adv-x="1222" d="M20 0v16q0 45 27 58q14 6 113 14l397 1296q57 8 115 0l395 -1292h2l131 -12q8 -80 -47 -80h-371v16q0 45 27 58q12 6 31 8l102 6l-117 395h-450l-115 -391l152 -12q8 -80 -47 -80h-345zM354 1631q0 40 29 69t69 29t67.5 -29t27.5 -69t-27.5 -67.5t-67.5 -27.5t-69 27.5 t-29 67.5zM403 575h396l-199 672zM678 1632q0 39 27.5 68t68.5 29t68.5 -29t27.5 -69t-27.5 -67.5t-68.5 -27.5t-68.5 28.5t-27.5 67.5z" />
<glyph unicode="&#xc5;" horiz-adv-x="1222" d="M20 0v16q0 45 27 58q14 6 113 14l397 1296q57 8 115 0l395 -1292h2l131 -12q8 -80 -47 -80h-371v16q0 45 27 58q12 6 31 8l102 6l-117 395h-450l-115 -391l152 -12q8 -80 -47 -80h-345zM403 575h396l-199 672zM432 1673q0 80 52.5 129t135 49t132 -47t48.5 -127 t-52.5 -129t-134.5 -49t-132 47t-49 127zM522 1675q0 -43 25.5 -68.5t68.5 -25.5t69 25.5t26 68.5t-26 68.5t-69 25.5t-68.5 -25.5t-25.5 -68.5z" />
<glyph unicode="&#xc6;" horiz-adv-x="1748" d="M20 0v16q0 45 27 58q14 6 111 14l635 1296l821 2v-284q0 -55 -80 -47l-21 229l-536 10v-557l401 23q12 -61 0 -133l-401 22v-557l577 12l21 207q14 8 47 0t33 -47v-264h-957v16q0 45 27 58q12 6 31 8l102 6v561h-328l-270 -557l152 -12q8 -80 -47 -80h-345zM573 741h285 v553h-16z" />
<glyph unicode="&#xc7;" horiz-adv-x="1120" d="M81 656.5q-9 318.5 151 537.5t436 219q164 0 274.5 -73.5t110.5 -181t-109 -109.5q0 129 -79 199.5t-212 70.5q-215 0 -328.5 -174t-113.5 -456.5t110.5 -445.5t343 -163t377.5 125q25 -12 25 -41q0 -53 -106.5 -118.5t-266.5 -74.5l-12 -55q84 0 124 -39t40 -108.5 t-52.5 -112.5t-141.5 -43t-142 57q-6 39 25 60q49 -39 104 -39q100 0 100 80q0 72 -151 71l33 127q-254 12 -392.5 190.5t-147.5 497z" />
<glyph unicode="&#xc8;" horiz-adv-x="1120" d="M86 0v16q0 45 27 58q12 6 30 8l103 6v1202l-150 15q-8 78 49 77h856v-284q0 -55 -79 -47l-21 229l-536 10v-557l401 23q12 -61 0 -133l-401 22v-553l561 12l20 207q16 8 48 0t32 -47v-264h-940zM358 1690q18 35 51 61.5t68 28.5l336 -254q-22 -39 -53 -53z" />
<glyph unicode="&#xc9;" horiz-adv-x="1120" d="M86 0v16q0 45 27 58q12 6 30 8l103 6v1202l-150 15q-8 78 49 77h856v-284q0 -55 -79 -47l-21 229l-536 10v-557l401 23q12 -61 0 -133l-401 22v-553l561 12l20 207q16 8 48 0t32 -47v-264h-940zM455 1546l336 254q35 -2 67.5 -28.5t50.5 -61.5l-401 -217q-31 14 -53 53z " />
<glyph unicode="&#xca;" horiz-adv-x="1120" d="M86 0v16q0 45 27 58q12 6 30 8l103 6v1202l-150 15q-8 78 49 77h856v-284q0 -55 -79 -47l-21 229l-536 10v-557l401 23q12 -61 0 -133l-401 22v-553l561 12l20 207q16 8 48 0t32 -47v-264h-940zM291 1526l266 243q59 16 119 0l266 -243q-23 -39 -53 -53l-273 182 l-272 -182q-31 14 -53 53z" />
<glyph unicode="&#xcb;" horiz-adv-x="1120" d="M86 0v16q0 45 27 58q12 6 30 8l103 6v1202l-150 15q-8 78 49 77h856v-284q0 -55 -79 -47l-21 229l-536 10v-557l401 23q12 -61 0 -133l-401 22v-553l561 12l20 207q16 8 48 0t32 -47v-264h-940zM358 1631q0 40 29 69t69 29t67.5 -29t27.5 -69t-27.5 -67.5t-67.5 -27.5 t-69 27.5t-29 67.5zM682 1632q0 39 27.5 68t68.5 29t68.5 -29t27.5 -69t-27.5 -67.5t-68.5 -27.5t-68.5 28.5t-27.5 67.5z" />
<glyph unicode="&#xcc;" horiz-adv-x="612" d="M57 1690q18 35 51 61.5t68 28.5l336 -254q-23 -39 -53 -53zM86 0v16q0 45 27 58q12 6 30 8l103 6v1202l-150 13q-8 80 47 79h383v-14q0 -45 -26 -59q-12 -6 -31 -9l-102 -6h-2v-1202l151 -12q8 -80 -47 -80h-383z" />
<glyph unicode="&#xcd;" horiz-adv-x="612" d="M86 0v16q0 45 27 58q12 6 30 8l103 6v1202l-150 13q-8 79 47 79h383v-14q0 -45 -26 -59q-12 -6 -31 -9l-102 -6h-2v-1202l151 -12q8 -80 -47 -80h-383zM154 1546l335 254q35 -2 68 -28.5t51 -61.5l-401 -217q-31 14 -53 53z" />
<glyph unicode="&#xce;" horiz-adv-x="612" d="M-10 1526l266 243q60 16 119 0l266 -243q-23 -39 -53 -53l-273 182l-272 -182q-31 14 -53 53zM86 0v16q0 45 27 58q12 6 30 8l103 6v1202l-150 13q-8 79 47 79h383v-14q0 -45 -26 -59q-12 -6 -31 -9l-102 -6h-2v-1202l151 -12q8 -80 -47 -80h-383z" />
<glyph unicode="&#xcf;" horiz-adv-x="612" d="M57 1631q0 40 29 69t69 29t67.5 -29t27.5 -69t-27.5 -67.5t-67.5 -27.5t-69 27.5t-29 67.5zM86 0v16q0 45 27 58q12 6 30 8l103 6v1202l-150 13q-8 79 47 79h383v-14q0 -45 -26 -59q-12 -6 -31 -9l-102 -6h-2v-1202l151 -12q8 -80 -47 -80h-383zM381 1632q0 39 27.5 68 t68.5 29t68.5 -29t27.5 -69t-27.5 -67.5t-68.5 -27.5t-68.5 28.5t-27.5 67.5z" />
<glyph unicode="&#xd0;" horiz-adv-x="1402" d="M86 0v16q0 45 27 58q12 6 30 8l103 6v557h-105v92h105v557l-150 13q-8 79 47 79h416q369 0 531.5 -166.5t162.5 -514t-175 -526.5t-519 -179h-473zM365 86h151q293 0 451.5 149.5t158.5 469t-164.5 465t-492.5 133.5l-104 -5v-561h387v-92h-387v-559z" />
<glyph unicode="&#xd1;" horiz-adv-x="1396" d="M86 0v16q0 45 27 58q12 6 30 8l105 6v1202l-152 13q-8 80 47 79h203l737 -1146v1054l-151 13q-8 79 47 79h367v-14q0 -45 -27 -59q-12 -6 -31 -9l-106 -6v-1271q-47 -23 -92 -23l-742 1151v-1059l152 -12q8 -80 -47 -80h-367zM350 1573q23 92 81 140t124 48t146.5 -53 t132 -53t84 29.5t45.5 76.5l61 -18q-16 -84 -70.5 -139.5t-132.5 -55.5t-163 51.5t-130 51.5q-82 0 -116 -101z" />
<glyph unicode="&#xd2;" horiz-adv-x="1288" d="M82 654.5q-8 328.5 147.5 543.5t438.5 215q147 0 272 -74q76 -43 131 -114.5t94 -198.5t41 -293q4 -344 -148.5 -554t-447.5 -210q-242 0 -381 178.5t-147 507zM203 694.5q0 -278.5 100 -448.5q49 -86 136 -134.5t204 -48.5q223 2 333.5 172.5t110.5 450.5 q0 276 -100 449q-106 184 -334.5 183t-339 -173t-110.5 -450.5zM418 1690q18 35 51 61.5t68 28.5l335 -254q-22 -39 -53 -53z" />
<glyph unicode="&#xd3;" horiz-adv-x="1288" d="M82 654.5q-8 328.5 147.5 543.5t438.5 215q147 0 272 -74q76 -43 131 -114.5t94 -198.5t41 -293q4 -344 -148.5 -554t-447.5 -210q-242 0 -381 178.5t-147 507zM203 694.5q0 -278.5 100 -448.5q49 -86 136 -134.5t204 -48.5q223 2 333.5 172.5t110.5 450.5 q0 276 -100 449q-106 184 -334.5 183t-339 -173t-110.5 -450.5zM514 1546l336 254q35 -2 68 -28.5t51 -61.5l-402 -217q-31 14 -53 53z" />
<glyph unicode="&#xd4;" horiz-adv-x="1288" d="M82 654.5q-8 328.5 147.5 543.5t438.5 215q147 0 272 -74q76 -43 131 -114.5t94 -198.5t41 -293q4 -344 -148.5 -554t-447.5 -210q-242 0 -381 178.5t-147 507zM203 682q0 -266 100 -436q49 -86 136 -134.5t204 -48.5q223 2 333.5 172.5t110.5 449t-103 456.5t-331.5 177 t-339 -173t-110.5 -463zM350 1526l266 243q59 16 119 0l266 -243q-23 -39 -53 -53l-272 182l-273 -182q-31 14 -53 53z" />
<glyph unicode="&#xd5;" horiz-adv-x="1288" d="M82 654.5q-8 328.5 147.5 543.5t438.5 215q147 0 272 -74q76 -43 131 -114.5t94 -198.5t41 -293q4 -344 -148.5 -554t-447.5 -210q-242 0 -381 178.5t-147 507zM203 694.5q0 -278.5 100 -448.5q49 -86 136 -134.5t204 -48.5q223 2 333.5 172.5t110.5 450.5 q0 276 -100 449q-106 184 -334.5 183t-339 -173t-110.5 -450.5zM338 1573q22 92 80.5 140t124 48t146.5 -53t132 -53t84 29.5t45 76.5l62 -18q-16 -84 -70.5 -139.5t-132.5 -55.5t-163 51.5t-130 51.5q-82 0 -117 -101z" />
<glyph unicode="&#xd6;" horiz-adv-x="1288" d="M82 654.5q-8 328.5 147.5 543.5t438.5 215q147 0 272 -74q76 -43 131 -114.5t94 -198.5t41 -293q4 -344 -148.5 -554t-447.5 -210q-242 0 -381 178.5t-147 507zM203 694.5q0 -278.5 100 -448.5q49 -86 136 -134.5t204 -48.5q223 2 333.5 172.5t110.5 450.5 q0 276 -100 449q-106 184 -334.5 183t-339 -173t-110.5 -450.5zM418 1631q0 40 28.5 69t68.5 29t67.5 -29t27.5 -69t-27.5 -67.5t-67.5 -27.5t-68.5 27.5t-28.5 67.5zM741 1632q0 39 28 68t69 29t68.5 -29t27.5 -69t-27.5 -67.5t-68.5 -27.5t-69 28.5t-28 67.5z" />
<glyph unicode="&#xd7;" horiz-adv-x="843" d="M102 350l246 246l-246 246l74 73l246 -245l246 245l73 -73l-245 -246l245 -246l-73 -74l-246 246l-246 -246z" />
<glyph unicode="&#xd8;" horiz-adv-x="1392" d="M83 615.5q-9 367.5 146.5 582.5t438.5 215q207 0 342 -123l67 117l101 -49l-91 -156q117 -176 119 -469q4 -344 -148.5 -554t-447.5 -210q-115 0 -215 45l-26 -45l-99 54l31 51q-209 174 -218 541.5zM203 682q0 -350 155 -508l590 1014q-111 131 -303 131 q-221 -2 -331.5 -174t-110.5 -463zM449 106q84 -43 194 -43q223 3 333.5 173t110.5 429t-71 414z" />
<glyph unicode="&#xd9;" horiz-adv-x="1310" d="M53 1303q-8 80 47 79h381v-14q0 -45 -26 -59q-12 -6 -31 -9l-102 -6l-3 -809q0 -424 324 -424q174 0 269.5 104.5t95.5 317.5v807l-150 13q-8 79 47 79h355v-14q0 -45 -27 -59q-12 -6 -31 -9l-98 -6v-794q0 -244 -115 -387.5t-360 -143.5q-426 0 -426 498v823zM401 1690 q18 35 51 61.5t68 28.5l336 -254q-22 -39 -53 -53z" />
<glyph unicode="&#xda;" horiz-adv-x="1310" d="M53 1303q-8 80 47 79h381v-14q0 -45 -26 -59q-12 -6 -31 -9l-102 -6l-3 -809q0 -424 324 -424q174 0 269.5 104.5t95.5 317.5v807l-150 13q-8 79 47 79h355v-14q0 -45 -27 -59q-12 -6 -31 -9l-98 -6v-794q0 -244 -115 -387.5t-360 -143.5q-426 0 -426 498v823zM498 1546 l336 254q35 -2 67.5 -28.5t50.5 -61.5l-401 -217q-31 14 -53 53z" />
<glyph unicode="&#xdb;" horiz-adv-x="1310" d="M53 1303q-8 80 47 79h381v-14q0 -45 -26 -59q-12 -6 -31 -9l-102 -6l-3 -809q0 -424 324 -424q174 0 269.5 104.5t95.5 317.5v807l-150 13q-8 79 47 79h355v-14q0 -45 -27 -59q-12 -6 -31 -9l-98 -6v-794q0 -244 -115 -387.5t-360 -143.5q-426 0 -426 498v823zM334 1526 l266 243q59 16 119 0l266 -243q-23 -39 -53 -53l-273 182l-272 -182q-31 14 -53 53z" />
<glyph unicode="&#xdc;" horiz-adv-x="1310" d="M53 1303q-8 80 47 79h381v-14q0 -45 -26 -59q-12 -6 -31 -9l-102 -6l-3 -809q0 -424 324 -424q174 0 269.5 104.5t95.5 317.5v807l-150 13q-8 79 47 79h355v-14q0 -45 -27 -59q-12 -6 -31 -9l-98 -6v-794q0 -244 -115 -387.5t-360 -143.5q-426 0 -426 498v823zM401 1631 q0 40 29 69t69 29t67.5 -29t27.5 -69t-27.5 -67.5t-67.5 -27.5t-69 27.5t-29 67.5zM725 1632q0 39 27.5 68t68.5 29t69 -29t28 -69t-28 -67.5t-69 -27.5t-68.5 28.5t-27.5 67.5z" />
<glyph unicode="&#xdd;" horiz-adv-x="1187" d="M12 1307q-8 80 47 79h355v-14q0 -45 -27 -59q-12 -6 -31 -8l-98 -7l365 -649l346 645l-142 13q-8 79 47 79h304v-14q0 -61 -58 -67l-41 -7h-2l-413 -741v-465l151 -12q8 -80 -47 -80h-387v16q0 45 27 58q12 6 30 8l103 6v469l-418 737zM451 1546l335 254q35 -2 68 -28.5 t51 -61.5l-401 -217q-31 14 -53 53z" />
<glyph unicode="&#xde;" horiz-adv-x="1236" d="M86 0v16q0 45 27 58q12 6 30 8l103 6v1206l-150 13q-8 80 47 79h383v-14q0 -45 -26 -59q-12 -6 -31 -8l-102 -7h-2v-180h196q260 0 387 -107.5t127 -275.5q0 -436 -563 -436q-49 0 -147 4v-211l151 -12q8 -80 -47 -80h-383zM365 389q90 -4 131 -4q227 0 334.5 79 t107.5 249t-111.5 245.5t-357.5 75.5h-104v-645z" />
<glyph unicode="&#xdf;" horiz-adv-x="1204" d="M100 0v14q0 59 58 60l96 4v854q0 145 38 250.5t103 160.5q127 104 307 101q129 -2 220.5 -56.5t91.5 -179.5q0 -123 -113 -217q-45 -39 -92 -73q-113 -84 -113 -166q0 -45 36 -85t73 -60.5t98.5 -50.5t95 -48.5t76.5 -52.5q82 -63 82 -176t-93 -211.5t-247 -98.5 q-109 0 -188.5 51.5t-79.5 134.5t80 83q18 -82 72.5 -129.5t141.5 -47.5t146.5 55.5t59.5 137.5q0 49 -18.5 74.5t-28 37t-35 27t-36.5 22.5t-45 23.5t-72 37t-67.5 38.5t-74.5 53q-82 63 -82 151.5t49 155t106.5 107.5t106.5 99.5t49 119.5q0 49 -24 86q-45 72 -179 72 q-168 0 -249.5 -109.5t-81.5 -285.5v-963h-267z" />
<glyph unicode="&#xe0;" horiz-adv-x="1017" d="M102 242q0 109 76 188q90 98 314 98q127 0 235 -32v182q0 109 -62.5 182.5t-179.5 73.5q-205 0 -229 -203q-41 -4 -67.5 18.5t-26.5 75.5q0 84 87 141.5t224 57.5q106 0 219 -51q66 -31 107 -105.5t41 -183.5v-612l137 -17q0 -88 -113 -88q-121 0 -135 137 q-53 -55 -137 -95t-206 -40t-203 72t-81 201zM211 1300q18 35 51 62t68 29l336 -254q-23 -39 -54 -54zM233 255q0 -85 54.5 -136t150.5 -51q166 0 289 129v182q-98 61 -235.5 61t-198 -50t-60.5 -135z" />
<glyph unicode="&#xe1;" horiz-adv-x="1017" d="M102 242q0 109 76 188q90 98 314 98q127 0 235 -32v182q0 109 -62.5 182.5t-179.5 73.5q-205 0 -229 -203q-41 -4 -67.5 18.5t-26.5 75.5q0 84 87 141.5t224 57.5q106 0 219 -51q66 -31 107 -105.5t41 -183.5v-612l137 -17q0 -88 -113 -88q-121 0 -135 137 q-53 -55 -137 -95t-206 -40t-203 72t-81 201zM233 255q0 -85 54.5 -136t150.5 -51q166 0 289 129v182q-98 61 -235.5 61t-198 -50t-60.5 -135zM307 1137l336 254q35 -2 68 -29t51 -62l-402 -217q-31 14 -53 54z" />
<glyph unicode="&#xe2;" horiz-adv-x="1017" d="M102 242q0 109 76 188q90 98 314 98q127 0 235 -32v182q0 109 -62.5 182.5t-179.5 73.5q-205 0 -229 -203q-41 -4 -67.5 18.5t-26.5 75.5q0 84 87 141.5t224 57.5q106 0 219 -51q66 -31 107 -105.5t41 -183.5v-612l137 -17q0 -88 -113 -88q-121 0 -135 137 q-53 -55 -137 -95t-206 -40t-203 72t-81 201zM143 1137l267 243q59 16 118 0l267 -243q-23 -39 -54 -54l-272 183l-272 -183q-31 14 -54 54zM233 255q0 -85 54.5 -136t150.5 -51q166 0 289 129v182q-98 61 -235.5 61t-198 -50t-60.5 -135z" />
<glyph unicode="&#xe3;" horiz-adv-x="1017" d="M102 242q0 109 76 188q90 98 314 98q127 0 235 -32v182q0 109 -62.5 182.5t-179.5 73.5q-205 0 -229 -203q-41 -4 -67.5 18.5t-26.5 75.5q0 84 87 141.5t224 57.5q106 0 219 -51q66 -31 107 -105.5t41 -183.5v-612l137 -17q0 -88 -113 -88q-121 0 -135 137 q-53 -55 -137 -95t-206 -40t-203 72t-81 201zM127 1196q29 88 90.5 132t127 40t142 -62.5t129.5 -62.5q101 -6 134 96l61 -22q-25 -82 -82 -133t-135 -46t-159 62t-126 60.5t-75.5 -24.5t-47.5 -67zM233 255q0 -85 54.5 -136t150.5 -51q166 0 289 129v182q-98 61 -235.5 61 t-198 -50t-60.5 -135z" />
<glyph unicode="&#xe4;" horiz-adv-x="1017" d="M102 242q0 109 76 188q90 98 314 98q127 0 235 -32v182q0 109 -62.5 182.5t-179.5 73.5q-205 0 -229 -203q-41 -4 -67.5 18.5t-26.5 75.5q0 84 87 141.5t224 57.5q106 0 219 -51q66 -31 107 -105.5t41 -183.5v-612l137 -17q0 -88 -113 -88q-121 0 -135 137 q-53 -55 -137 -95t-206 -40t-203 72t-81 201zM211 1242q0 40 28.5 68.5t68.5 28.5t67.5 -28.5t27.5 -68.5t-27.5 -67.5t-67.5 -27.5t-68.5 27.5t-28.5 67.5zM233 255q0 -85 54.5 -136t150.5 -51q166 0 289 129v182q-98 61 -235.5 61t-198 -50t-60.5 -135zM535 1243 q0 39 27.5 67.5t68.5 28.5t68.5 -28.5t27.5 -68.5t-27.5 -67.5t-68.5 -27.5t-68.5 28.5t-27.5 67.5z" />
<glyph unicode="&#xe5;" horiz-adv-x="1017" d="M102 242q0 109 76 188q90 98 314 98q127 0 235 -32v182q0 109 -62.5 182.5t-179.5 73.5q-205 0 -229 -203q-41 -4 -67.5 18.5t-26.5 75.5q0 84 87 141.5t224 57.5q106 0 219 -51q66 -31 107 -105.5t41 -183.5v-612l137 -17q0 -88 -113 -88q-121 0 -135 137 q-53 -55 -137 -95t-206 -40t-203 72t-81 201zM233 255q0 -85 54.5 -136t150.5 -51q166 0 289 129v182q-98 61 -235.5 61t-198 -50t-60.5 -135zM289 1284q0 80 52 129t135 49t132 -47t48 -127t-52 -129t-134 -49t-132 47t-49 127zM379 1286q0 -43 25.5 -68.5t68.5 -25.5 t68.5 25.5t25.5 68.5t-25.5 68.5t-68.5 25.5t-68.5 -25.5t-25.5 -68.5z" />
<glyph unicode="&#xe6;" horiz-adv-x="1570" d="M102 235.5q0 122.5 89.5 207.5t300.5 85q127 0 235 -32v182q0 109 -62.5 182.5t-185.5 73.5q-143 0 -196 -107q-23 -47 -27 -96q-37 -4 -65.5 17.5t-28.5 72.5q0 88 87 146.5t224 56.5q59 0 141 -25q168 -47 205 -186q66 102 162 156.5t194.5 54.5t164 -35t100.5 -92 q68 -115 67 -254v-94h-649q-4 -49 -4 -80q0 -172 78 -285.5t237.5 -113.5t294.5 108q20 -14 21 -41q0 -53 -110.5 -110.5t-241.5 -57.5q-229 0 -334 181q-57 -72 -157.5 -126.5t-238 -54.5t-219.5 72t-82 194.5zM233 255q0 -87 56.5 -137t150.5 -50q158 0 287 125v186 q-98 61 -234.5 61t-198 -49t-61.5 -136zM870 629h510q4 133 -53 221t-163.5 88t-185.5 -85t-108 -224z" />
<glyph unicode="&#xe7;" horiz-adv-x="915" d="M82 449q-4 250 122 412.5t353 162.5q127 0 199.5 -51t72.5 -135q0 -94 -98 -95q-2 74 -53 129.5t-154 55.5q-156 0 -237.5 -128t-81.5 -315q0 -162 65 -280q76 -135 258 -135q150 0 287 108q20 -14 21 -39q0 -59 -109 -112.5t-233 -57.5l-13 -53q84 0 124 -39t40 -108.5 t-52 -112.5t-141.5 -43t-142.5 57q-6 39 25 60q49 -39 104 -39q100 0 101 80q0 72 -152 71l35 131q-162 18 -249 149.5t-91 326.5z" />
<glyph unicode="&#xe8;" horiz-adv-x="925" d="M82 471q0 254 135 403.5t324 149.5q88 0 153.5 -35t100.5 -92q68 -115 67 -254v-94h-649q-4 -49 -4 -74q0 -176 78 -290.5t237.5 -114.5t294.5 108q20 -14 21 -41q0 -53 -111 -110.5t-242 -57.5q-180 0 -292.5 124t-112.5 378zM225 629h510q4 133 -53 221t-163.5 88 t-185.5 -85t-108 -224zM268 1300q18 35 51 62t68 29l336 -254q-23 -39 -53 -54z" />
<glyph unicode="&#xe9;" horiz-adv-x="925" d="M82 471q0 254 135 403.5t324 149.5q88 0 153.5 -35t100.5 -92q68 -115 67 -254v-94h-649q-4 -49 -4 -74q0 -176 78 -290.5t237.5 -114.5t294.5 108q20 -14 21 -41q0 -53 -111 -110.5t-242 -57.5q-180 0 -292.5 124t-112.5 378zM225 629h510q4 133 -53 221t-163.5 88 t-185.5 -85t-108 -224zM365 1137l335 254q35 -2 68 -29t51 -62l-401 -217q-31 14 -53 54z" />
<glyph unicode="&#xea;" horiz-adv-x="925" d="M82 471q0 254 135 403.5t324 149.5q88 0 153.5 -35t100.5 -92q68 -115 67 -254v-94h-649q-4 -49 -4 -74q0 -176 78 -290.5t237.5 -114.5t294.5 108q20 -14 21 -41q0 -53 -111 -110.5t-242 -57.5q-180 0 -292.5 124t-112.5 378zM201 1137l266 243q59 16 119 0l266 -243 q-23 -39 -53 -54l-273 183l-272 -183q-31 14 -53 54zM225 629h510q4 133 -53 221t-163.5 88t-185.5 -85t-108 -224z" />
<glyph unicode="&#xeb;" horiz-adv-x="925" d="M82 471q0 254 135 403.5t324 149.5q88 0 153.5 -35t100.5 -92q68 -115 67 -254v-94h-649q-4 -49 -4 -74q0 -176 78 -290.5t237.5 -114.5t294.5 108q20 -14 21 -41q0 -53 -111 -110.5t-242 -57.5q-180 0 -292.5 124t-112.5 378zM225 629h510q4 133 -53 221t-163.5 88 t-185.5 -85t-108 -224zM268 1242q0 40 29 68.5t69 28.5t67.5 -28.5t27.5 -68.5t-27.5 -67.5t-67.5 -27.5t-69 27.5t-29 67.5zM592 1243q0 39 27.5 67.5t68.5 28.5t68.5 -28.5t27.5 -68.5t-27.5 -67.5t-68.5 -27.5t-68.5 28.5t-27.5 67.5z" />
<glyph unicode="&#xec;" horiz-adv-x="579" d="M25 1300q18 35 50.5 62t67.5 29l336 -254q-23 -39 -53 -54zM100 993l269 31v-940l157 -12q6 -72 -47 -72h-373v14q0 41 27 52q14 6 123 14v827l-115 11q-41 4 -41 75z" />
<glyph unicode="&#xed;" horiz-adv-x="579" d="M100 993l269 31v-940l157 -12q6 -72 -47 -72h-373v14q0 41 27 52q14 6 123 14v827l-115 11q-41 4 -41 75zM121 1137l336 254q35 -2 67.5 -29t50.5 -62l-401 -217q-31 14 -53 54z" />
<glyph unicode="&#xee;" horiz-adv-x="579" d="M-43 1137l266 243q60 16 119 0l266 -243q-23 -39 -53 -54l-272 183l-273 -183q-31 14 -53 54zM100 993l269 31v-940l157 -12q6 -72 -47 -72h-373v14q0 41 27 52q14 6 123 14v827l-115 11q-41 4 -41 75z" />
<glyph unicode="&#xef;" horiz-adv-x="579" d="M25 1242q0 40 28.5 68.5t68.5 28.5t67.5 -28.5t27.5 -68.5t-27.5 -67.5t-67.5 -27.5t-68.5 27.5t-28.5 67.5zM100 993l269 31v-940l157 -12q6 -72 -47 -72h-373v14q0 41 27 52q14 6 123 14v827l-115 11q-41 4 -41 75zM348 1243q0 39 27.5 67.5t68.5 28.5t69 -28.5 t28 -68.5t-28 -67.5t-69 -27.5t-68.5 28.5t-27.5 67.5z" />
<glyph unicode="&#xf0;" horiz-adv-x="1028" d="M82 420q-6 258 124 410.5t349 152.5q111 0 190 -45q-70 145 -194 246l-186 -119l-52 80l152 96q-127 78 -238 92l52 88q150 -29 288 -114l174 110l52 -80l-144 -90q297 -241 297 -665q0 -281 -129 -447t-348 -166q-188 0 -285.5 122t-101.5 329zM205 458.5 q0 -182.5 69.5 -282.5t219 -100t239.5 134t90 359q0 127 -28 236q-88 82 -258 82t-251 -123t-81 -305.5z" />
<glyph unicode="&#xf1;" horiz-adv-x="1236" d="M100 991l236 33l29 -164h6q172 164 350 164q131 0 225 -93t94 -292v-555l144 -12q8 -72 -47 -72h-363v14q0 41 27 52q14 8 127 14v536q0 305 -238 306q-86 0 -158.5 -35t-162.5 -113v-690l145 -12q6 -72 -47 -72h-365v14q0 41 27 52q14 8 127 14v827l-115 13 q-41 4 -41 71zM293 1196q29 88 90 132t126.5 40t142.5 -62.5t130 -62.5q100 -6 133 96l62 -22q-25 -82 -82 -133t-135 -46t-159 62t-126 60.5t-76 -24.5t-47 -67z" />
<glyph unicode="&#xf2;" horiz-adv-x="1021" d="M83 472q-3 245 118.5 398.5t322.5 153.5q141 0 264 -86q68 -49 109 -152.5t43 -250.5q4 -252 -115.5 -409t-322.5 -157t-309.5 129t-109.5 374zM205 493.5q0 -188.5 76.5 -311.5t225 -121t229.5 123t81 307.5t-75.5 314.5t-225 126t-230.5 -126t-81 -312.5zM258 1300 q18 35 51 62t68 29l336 -254q-23 -40 -54 -54z" />
<glyph unicode="&#xf3;" horiz-adv-x="1021" d="M83 472q-3 245 118.5 398.5t322.5 153.5q141 0 264 -86q68 -49 109 -152.5t43 -250.5q4 -252 -115.5 -409t-322.5 -157t-309.5 129t-109.5 374zM205 493.5q0 -188.5 76.5 -311.5t225 -121t229.5 123t81 307.5t-75.5 314.5t-225 126t-230.5 -126t-81 -312.5zM354 1137 l336 254q35 -2 68 -29t51 -62l-401 -217q-31 14 -54 54z" />
<glyph unicode="&#xf4;" horiz-adv-x="1021" d="M83 472q-3 245 119 398.5t322 153.5q141 0 264 -86q68 -49 109 -152.5t43 -250.5q4 -252 -115.5 -409t-322.5 -157t-309.5 129t-109.5 374zM190 1137l267 243q59 16 118 0l267 -243q-23 -39 -54 -54l-272 183l-272 -183q-31 14 -54 54zM205 493.5q0 -188.5 76.5 -311.5 t225 -121t229.5 123t81 307.5t-75.5 314.5t-225 126t-230.5 -126t-81 -312.5z" />
<glyph unicode="&#xf5;" horiz-adv-x="1021" d="M83 472q-3 245 118.5 398.5t322.5 153.5q141 0 264 -86q68 -49 109 -152.5t43 -250.5q4 -252 -115.5 -409t-322.5 -157t-309.5 129t-109.5 374zM174 1196q29 88 90.5 132t127 40t142 -62.5t130.5 -62.5q100 -6 133 96l61 -22q-25 -82 -82 -133t-135 -46t-159 62 t-126 60.5t-76 -24.5t-47 -67zM205 493.5q0 -188.5 76.5 -311.5t225 -121t229.5 123t81 307.5t-75.5 314.5t-225 126t-230.5 -126t-81 -312.5z" />
<glyph unicode="&#xf6;" horiz-adv-x="1021" d="M83 472q-3 245 118.5 398.5t322.5 153.5q141 0 264 -86q68 -49 109 -152.5t43 -250.5q4 -252 -115.5 -409t-322.5 -157t-309.5 129t-109.5 374zM205 493.5q0 -188.5 76.5 -311.5t225 -121t229.5 123t81 307.5t-75.5 314.5t-225 126t-230.5 -126t-81 -312.5zM258 1242 q0 40 28.5 68.5t68.5 28.5t68 -28.5t28 -68.5t-28 -67.5t-68 -27.5t-68.5 27.5t-28.5 67.5zM582 1243q0 39 27.5 67.5t68.5 28.5t68.5 -28.5t27.5 -68.5t-27.5 -67.5t-68.5 -27.5t-68.5 28.5t-27.5 67.5z" />
<glyph unicode="&#xf7;" horiz-adv-x="962" d="M102 545v102h758v-102h-758zM379 305q0 41 26.5 68.5t67.5 27.5t67.5 -27.5t26.5 -68.5t-26.5 -68.5t-67.5 -27.5t-67.5 27.5t-26.5 68.5zM379 887q0 41 26.5 68.5t67.5 27.5t67.5 -27.5t26.5 -68.5t-26.5 -68.5t-67.5 -27.5t-67.5 27.5t-26.5 68.5z" />
<glyph unicode="&#xf8;" horiz-adv-x="1042" d="M82 461q-2 256 120 409.5t322 153.5q119 0 213 -51l31 51l94 -47l-41 -72q117 -123 120 -372.5t-116.5 -406.5t-330.5 -157q-113 0 -195 43l-25 -43l-92 51l31 54q-127 131 -131 387zM205 494.5q0 -187.5 74 -308.5l401 688q-68 57 -168 58q-145 -2 -226 -126t-81 -311.5 zM354 106q68 -45 156 -45q145 2 226 123t81 303.5t-65 300.5z" />
<glyph unicode="&#xf9;" horiz-adv-x="1155" d="M37 922q-8 72 47 71h221v-594q0 -158 66.5 -240.5t198.5 -82.5t274 123v710l-158 13q-6 72 47 71h223v-882l115 -13q41 -4 41 -78l-235 -18l-23 107q-135 -140 -317 -140q-137 0 -240.5 98.5t-103.5 313.5v528zM322 1300q18 35 51 62t67 29l336 -254q-22 -40 -53 -54z " />
<glyph unicode="&#xfa;" horiz-adv-x="1155" d="M37 922q-8 72 47 71h221v-594q0 -158 66.5 -240.5t198.5 -82.5t274 123v710l-158 13q-6 72 47 71h223v-882l115 -13q41 -4 41 -78l-235 -18l-23 107q-135 -140 -317 -140q-137 0 -240.5 98.5t-103.5 313.5v528zM418 1137l336 254q35 -2 67.5 -29t50.5 -62l-401 -217 q-31 14 -53 54z" />
<glyph unicode="&#xfb;" horiz-adv-x="1155" d="M37 922q-8 72 47 71h221v-594q0 -158 66.5 -240.5t198.5 -82.5t274 123v710l-158 13q-6 72 47 71h223v-882l115 -13q41 -4 41 -78l-235 -18l-23 107q-135 -140 -317 -140q-137 0 -240.5 98.5t-103.5 313.5v528zM254 1137l266 243q59 16 119 0l266 -243q-23 -39 -53 -54 l-272 183l-273 -183q-31 14 -53 54z" />
<glyph unicode="&#xfc;" horiz-adv-x="1155" d="M37 922q-8 72 47 71h221v-594q0 -158 66.5 -240.5t198.5 -82.5t274 123v710l-158 13q-6 72 47 71h223v-882l115 -13q41 -4 41 -78l-235 -18l-23 107q-135 -140 -317 -140q-137 0 -240.5 98.5t-103.5 313.5v528zM322 1242q0 40 28.5 68.5t68.5 28.5t67.5 -28.5t27.5 -68.5 t-27.5 -67.5t-67.5 -27.5t-68.5 27.5t-28.5 67.5zM645 1243q0 39 27.5 67.5t68.5 28.5t69 -28.5t28 -68.5t-28 -67.5t-69 -27.5t-68.5 28.5t-27.5 67.5z" />
<glyph unicode="&#xfd;" horiz-adv-x="991" d="M12 922q-8 72 47 71h324v-14q0 -41 -27 -53q-14 -4 -118 -13l276 -731l281 727l-123 13q-8 71 47 71h264q-2 -6 0 -14t-1 -18.5t-7 -18.5q-10 -18 -74 -24l-360 -893q-109 -268 -183.5 -366.5t-147.5 -98.5t-105.5 29.5t-32.5 68.5t20.5 62.5t45 23.5t34.5 -4 q-16 -74 49 -74q88 0 242 373l-352 870zM336 1137l336 254q35 -2 68 -29t51 -62l-402 -217q-31 14 -53 54z" />
<glyph unicode="&#xfe;" horiz-adv-x="1101" d="M23 1391l268 30v-559q166 162 333 162t278.5 -127t117.5 -376t-123 -400.5t-358 -151.5q-119 0 -248 58v-379l158 -13q6 -72 -48 -71h-372v14q0 41 26 53q14 4 123 13v1665l-115 12q-41 4 -40 70zM291 170q39 -37 114.5 -70.5t169.5 -33.5q162 0 242 122.5t80 306 t-77 303.5t-236 120q-82 0 -142.5 -32t-150.5 -106v-610z" />
<glyph unicode="&#xff;" horiz-adv-x="991" d="M12 922q-8 72 47 71h324v-14q0 -41 -27 -53q-14 -4 -118 -13l276 -731l281 727l-123 13q-8 71 47 71h264q-2 -6 0 -14t-1 -18.5t-7 -18.5q-10 -18 -74 -24l-360 -893q-109 -268 -183.5 -366.5t-147.5 -98.5t-105.5 29.5t-32.5 68.5t20.5 62.5t45 23.5t34.5 -4 q-16 -74 49 -74q88 0 242 373l-352 870zM240 1242q0 40 28.5 68.5t68.5 28.5t67.5 -28.5t27.5 -68.5t-27.5 -67.5t-67.5 -27.5t-68.5 27.5t-28.5 67.5zM563 1243q0 39 27.5 67.5t68.5 28.5t69 -28.5t28 -68.5t-28 -67.5t-69 -27.5t-68.5 28.5t-27.5 67.5z" />
<glyph unicode="&#x152;" horiz-adv-x="1789" d="M81 655.5q-9 329.5 156.5 545.5t464.5 216q104 0 199 -31h754v-284q0 -55 -80 -47l-21 229l-536 10v-557l401 23q12 -61 0 -133l-401 22v-557l577 12l21 207q14 8 47 0t33 -47v-264h-844q-94 -31 -211 -31q-256 0 -403.5 178.5t-156.5 508zM209 694.5 q0 -280.5 110.5 -456t356.5 -175.5q129 0 223 54v1155q-90 51 -221 51q-236 -2 -352.5 -175t-116.5 -453.5z" />
<glyph unicode="&#x153;" horiz-adv-x="1652" d="M82 469q-4 246 114.5 400.5t325.5 154.5q106 0 207.5 -54.5t157.5 -185.5q63 115 164.5 177.5t203 62.5t167 -35t100.5 -92q68 -115 67 -254v-94h-649q-4 -49 -4 -74q0 -176 78 -290.5t237.5 -114.5t294.5 108q20 -14 21 -41q0 -53 -110.5 -110.5t-235.5 -57.5 t-218.5 58.5t-142.5 167.5q-119 -225 -371 -226q-190 0 -296.5 127t-110.5 373zM205 495.5q0 -190.5 76.5 -317.5t222 -125t225.5 127t80 315.5t-77 317.5t-222 125t-225 -127t-80 -315.5zM952 629h510q4 133 -53 221t-163.5 88t-185.5 -85t-108 -224z" />
<glyph unicode="&#x178;" horiz-adv-x="1187" d="M12 1307q-8 80 47 79h355v-14q0 -45 -27 -59q-12 -6 -31 -8l-98 -7l365 -649l346 645l-142 13q-8 79 47 79h304v-14q0 -61 -58 -67l-41 -7h-2l-413 -741v-465l151 -12q8 -80 -47 -80h-387v16q0 45 27 58q12 6 30 8l103 6v469l-418 737zM354 1631q0 40 29 69t69 29 t67.5 -29t27.5 -69t-27.5 -67.5t-67.5 -27.5t-69 27.5t-29 67.5zM678 1632q0 39 27.5 68t68.5 29t68.5 -29t27.5 -69t-27.5 -67.5t-68.5 -27.5t-68.5 28.5t-27.5 67.5z" />
<glyph unicode="&#x2c6;" d="M225 1137l267 243q59 16 118 0l267 -243q-23 -39 -54 -54l-272 183l-272 -183q-31 14 -54 54z" />
<glyph unicode="&#x2dc;" d="M176 1196q29 88 90.5 132t127 40t142 -62.5t130.5 -62.5q100 -6 133 96l61 -22q-25 -82 -82 -133t-135 -46t-159 62t-126 60.5t-75.5 -24.5t-46.5 -67z" />
<glyph unicode="&#x2000;" horiz-adv-x="925" />
<glyph unicode="&#x2001;" horiz-adv-x="1851" />
<glyph unicode="&#x2002;" horiz-adv-x="925" />
<glyph unicode="&#x2003;" horiz-adv-x="1851" />
<glyph unicode="&#x2004;" horiz-adv-x="617" />
<glyph unicode="&#x2005;" horiz-adv-x="462" />
<glyph unicode="&#x2006;" horiz-adv-x="308" />
<glyph unicode="&#x2007;" horiz-adv-x="308" />
<glyph unicode="&#x2008;" horiz-adv-x="231" />
<glyph unicode="&#x2009;" horiz-adv-x="370" />
<glyph unicode="&#x200a;" horiz-adv-x="102" />
<glyph unicode="&#x2010;" horiz-adv-x="784" d="M102 451v102h580v-102h-580z" />
<glyph unicode="&#x2011;" horiz-adv-x="784" d="M102 451v102h580v-102h-580z" />
<glyph unicode="&#x2012;" horiz-adv-x="784" d="M102 451v102h580v-102h-580z" />
<glyph unicode="&#x2013;" horiz-adv-x="989" d="M102 451v102h785v-102h-785z" />
<glyph unicode="&#x2014;" horiz-adv-x="1628" d="M102 451v102h1424v-102h-1424z" />
<glyph unicode="&#x2018;" horiz-adv-x="344" d="M82 1178.5q0 54.5 45 123t96 89.5q8 4 21.5 -8.5t13.5 -20.5q-51 -35 -72 -107q35 -4 55.5 -30.5t20.5 -64.5t-24.5 -62.5t-65.5 -24.5t-65.5 25.5t-24.5 80z" />
<glyph unicode="&#x2019;" horiz-adv-x="344" d="M82 1303.5q0 37.5 24.5 62.5t65.5 25t65.5 -26t24.5 -80t-45 -122.5t-96 -89.5q-8 -4 -21.5 8.5t-13.5 20.5q51 35 72 106q-35 4 -55.5 31t-20.5 64.5z" />
<glyph unicode="&#x201a;" horiz-adv-x="352" d="M82 65.5q0 38.5 25.5 65.5t67.5 27t68.5 -27t26.5 -91.5t-46 -139t-101 -97.5q-8 -4 -22.5 9.5t-14.5 21.5q53 37 76 131q-37 4 -58.5 33t-21.5 67.5z" />
<glyph unicode="&#x201c;" horiz-adv-x="548" d="M82 1178.5q0 54.5 45 123t96 89.5q8 4 21.5 -8.5t13.5 -20.5q-51 -35 -72 -107q35 -4 55.5 -30.5t20.5 -64.5t-24.5 -62.5t-65.5 -24.5t-65.5 25.5t-24.5 80zM287 1178.5q0 54.5 45 123t96 89.5q8 4 21.5 -8.5t13.5 -20.5q-51 -35 -72 -107q35 -4 55.5 -30.5t20.5 -64.5 t-24.5 -62.5t-65.5 -24.5t-65.5 25.5t-24.5 80z" />
<glyph unicode="&#x201d;" horiz-adv-x="548" d="M82 1303.5q0 37.5 24.5 62.5t65.5 25t65.5 -26t24.5 -80t-45 -122.5t-96 -89.5q-8 -4 -21.5 8.5t-13.5 20.5q51 35 72 106q-35 4 -55.5 31t-20.5 64.5zM287 1303.5q0 37.5 24.5 62.5t65.5 25t65.5 -26t24.5 -80t-45 -122.5t-96 -89.5q-8 -4 -21.5 8.5t-13.5 20.5 q51 35 71 106q-35 4 -55 31t-20 64.5z" />
<glyph unicode="&#x201e;" horiz-adv-x="548" d="M82 60.5q0 37.5 24.5 62t65.5 24.5t65.5 -25.5t24.5 -79.5t-45 -123t-96 -89q-8 -4 -21.5 8t-13.5 21q51 35 72 106q-35 4 -55.5 31t-20.5 64.5zM287 60.5q0 37.5 24.5 62t65.5 24.5t65.5 -25.5t24.5 -79.5t-45 -123t-96 -89q-8 -4 -21.5 8t-13.5 21q51 35 71 106 q-35 4 -55 31t-20 64.5z" />
<glyph unicode="&#x2022;" horiz-adv-x="888" d="M287 628.5q0 65.5 46 111.5t110.5 46t111.5 -47t47 -111.5t-46 -110.5t-111.5 -46t-111.5 46t-46 111.5z" />
<glyph unicode="&#x2026;" horiz-adv-x="1122" d="M82 65.5q0 40.5 26.5 68.5t67.5 28t67.5 -28t26.5 -68.5t-26.5 -68.5t-67.5 -28t-67.5 28t-26.5 68.5zM467 65.5q0 40.5 26.5 68.5t67.5 28t67.5 -28t26.5 -68.5t-26.5 -68.5t-67.5 -28t-67.5 28t-26.5 68.5zM852 65.5q0 40.5 26.5 68.5t67.5 28t67.5 -28t26.5 -68.5 t-26.5 -68.5t-67.5 -28t-67.5 28t-26.5 68.5z" />
<glyph unicode="&#x202f;" horiz-adv-x="370" />
<glyph unicode="&#x2039;" horiz-adv-x="745" d="M129 453q-8 39 0 82l500 407l47 -49l-412 -395v-11l414 -395l-49 -49z" />
<glyph unicode="&#x203a;" horiz-adv-x="745" d="M68 92l413 395v11l-411 395l47 49l499 -407q8 -43 0 -82l-499 -410z" />
<glyph unicode="&#x205f;" horiz-adv-x="462" />
<glyph unicode="&#x20ac;" horiz-adv-x="1085" d="M82 463v92h121v43q0 41 2 61h-123v93h129q29 238 149.5 378t331.5 140q135 0 217 -65.5t82 -160t-100 -102.5q0 109 -61.5 175.5t-177 66.5t-205 -116t-113.5 -316h407v-93h-415v-49q0 -37 2 -55h413v-92h-407q25 -193 115 -301.5t243.5 -108.5t290.5 125q20 -10 21 -37 q0 -55 -103.5 -114.5t-236.5 -59.5q-186 0 -306 130t-147 366h-129z" />
<glyph unicode="&#x2122;" horiz-adv-x="1595" d="M92 1260v122h557v-122q0 -35 -53 -35l-8 96h-166v-510l78 -4q4 -14 -2 -33.5t-33 -19.5h-225q4 55 39 55l43 2v510h-166l-11 -96q-53 0 -53 35zM682 754q4 55 37 55l43 2l41 514l-70 4q0 53 37 53h135l197 -391l174 391h149q37 0 37 -53l-71 -4l43 -512l69 -6 q0 -53 -37 -53h-202q0 53 36 55l35 2l-35 453l-186 -406q-29 -6 -51 -4l-195 399l-34 -440l77 -6q0 -53 -37 -53h-192z" />
<glyph unicode="&#x25fc;" horiz-adv-x="993" d="M0 0v993h993v-993h-993z" />
<glyph unicode="&#xfb01;" horiz-adv-x="1138" d="M100 0v14q0 41 27 52q14 6 123 14v831h-146q0 4 -1 16.5t0 18.5t3.5 16.5t6.5 16.5q10 14 39 14h98v82q0 184 70.5 280.5t205.5 96.5q63 0 108.5 -26.5t45.5 -70.5t-22.5 -65.5t-57.5 -21.5q-2 47 -32.5 74.5t-71.5 27.5q-70 0 -102 -60.5t-32 -203.5v-113h248 q6 -82 -49 -82h-199v-827l199 -12v-26.5t-2 -21t-6 -12.5q-20 -12 -39 -12h-414zM659 993l269 31v-940l157 -12q8 -72 -47 -72h-372v14q0 41 26 52q14 6 123 14v827l-115 11q-41 4 -41 75zM766 1288q0 39 24.5 63.5t63.5 24.5t63.5 -24.5t24.5 -63.5t-24.5 -63.5 t-63.5 -24.5t-63.5 24.5t-24.5 63.5z" />
<glyph unicode="&#xfb02;" horiz-adv-x="1126" d="M100 0v14q0 41 27 52q14 6 123 14v831h-146q0 4 -1 16.5t0 18.5t3.5 16.5t6.5 16.5q10 14 39 14h98v82q0 184 70.5 280.5t196.5 96.5t155 -68l256 35v-1335l145 -12q8 -72 -47 -72h-364v14q0 41 26 52q14 8 127 14v1216l-115 13q-18 4 -24 10q-16 -51 -76 -51 q-2 47 -32.5 74.5t-71.5 27.5q-70 0 -102 -56.5t-32 -180.5v-140h248q6 -82 -49 -82h-199v-827l199 -12v-26.5t-2 -21t-6 -12.5q-20 -12 -39 -12h-414z" />
<glyph unicode="&#xfb03;" horiz-adv-x="1701" d="M102 0v14q0 41 27 52q14 6 123 14v831h-146q0 4 -1 16.5t0 18.5t3.5 16.5t6.5 16.5q10 14 39 14h98v82q0 184 70.5 280.5t205.5 96.5q63 0 108.5 -26.5t45.5 -70.5t-22.5 -65.5t-57.5 -21.5q-2 47 -32.5 74.5t-71.5 27.5q-70 0 -101.5 -56.5t-31.5 -180.5v-140h448v82 q0 184 70.5 280.5t206.5 96.5q63 0 108 -26.5t45 -70.5t-22.5 -65.5t-57.5 -21.5q-2 47 -32.5 74.5t-71.5 27.5q-70 0 -101.5 -60.5t-31.5 -203.5v-113h248q6 -82 -50 -82h-198v-827l198 -12v-26.5t-2 -21t-8 -12.5q-18 -12 -37 -12h-413v14q0 41 26 52q14 6 123 14v831 h-448v-827l198 -12v-26.5t-2 -21t-8 -12.5q-18 -12 -37 -12h-414zM1223 993l268 31v-940l158 -12q6 -72 -47 -72h-373v14q0 41 26 52q14 6 123 14v827l-114 11q-41 4 -41 75zM1329 1288q0 39 23.5 63.5t64.5 24.5t64.5 -24.5t23.5 -63.5t-23.5 -63.5t-64.5 -24.5t-64.5 24.5 t-23.5 63.5z" />
<glyph unicode="&#xfb04;" horiz-adv-x="1689" d="M100 0v14q0 41 27 52q14 6 123 14v831h-146q0 4 -1 16.5t0 18.5t3.5 16.5t6.5 16.5q10 14 39 14h98v82q0 184 70.5 280.5t205.5 96.5q63 0 108.5 -26.5t45.5 -70.5t-22.5 -65.5t-57.5 -21.5q-2 47 -32.5 74.5t-71.5 27.5q-70 0 -102 -56.5t-32 -180.5v-140h451v82 q0 184 70.5 280.5t196.5 96.5t155 -68l256 35v-1335l145 -12q6 -72 -47 -72h-364v14q0 41 26 52q14 8 127 14v1216l-114 13q-18 4 -25 10q-16 -51 -76 -51q-2 47 -32.5 74.5t-71.5 27.5q-70 0 -101.5 -56.5t-31.5 -180.5v-140h272q6 -82 -49 -82h-223v-827l198 -12v-26.5 t-2 -21t-8 -12.5q-18 -12 -37 -12h-413v14q0 41 26 52q14 6 123 14v831h-451v-827l199 -12v-26.5t-2 -21t-6 -12.5q-20 -12 -39 -12h-414z" />
</font>
</defs>
</svg>
